<svg width="175" height="30" viewBox="0 0 175 30" fill="none" xmlns="http://www.w3.org/2000/svg">
<path d="M22.7392 14.9996L22.5385 15.1996C21.134 16.6996 19.5287 17.3996 18.0239 17.3996L20.833 12.4996C22.6389 9.39961 20.9333 6.39961 18.1242 6.39961C15.8167 6.39961 14.0108 7.29961 12.3052 10.2996L10.8004 12.8996L9.59644 14.9996L9.39579 15.1996C7.18861 17.6996 5.08175 19.6996 3.7775 19.6996C3.07522 19.6996 2.77423 19.1996 3.47652 18.0996L9.89742 6.89961H12.3052L13.2082 5.49961H10.7L13.5092 0.599609H10.4994L7.69023 5.49961H4.98142L4.07848 6.89961H6.78729L0.767708 17.2996C-0.536536 19.4996 0.366402 21.5996 2.77424 21.5996C4.47979 21.5996 6.48631 20.2996 8.29219 18.4996C8.29219 22.2996 13.6095 23.0996 16.8199 18.9996H17.5222C19.3281 18.9996 22.1372 17.8996 23.6421 16.0996C23.6421 15.5996 23.1405 15.1996 22.7392 14.9996ZM16.3183 15.1996H16.218C15.2147 15.1996 14.4121 15.9996 14.4121 16.9996C14.4121 17.3996 14.5124 17.6996 14.7131 17.9996V18.0996C13.3085 20.4996 9.89742 20.0996 11.603 16.8996L13.9105 12.9996L15.315 10.5996C17.4219 6.99961 20.3314 8.39961 18.5255 11.4996L16.3183 15.1996Z" fill="#766458"/>
<path d="M64.3748 14.9996L64.1741 15.1996C61.9669 17.6996 59.2581 19.6996 57.1513 19.6996C55.3454 19.6996 54.2418 18.4996 55.5461 16.0996L55.847 15.5996C57.7532 16.3996 61.4653 15.9996 63.6725 12.0996L64.0738 11.3996C65.679 8.59961 64.1741 6.59961 61.666 6.59961C59.2581 6.59961 57.3519 7.89961 56.0477 10.0996L53.1382 15.0996L52.9376 15.2996C50.7304 17.7996 48.6235 19.7996 47.3193 19.7996C46.617 19.7996 46.316 19.2996 47.0183 18.1996L51.3323 10.5996C52.6366 8.29961 51.4327 6.69961 49.7271 6.69961C48.4229 6.69961 47.0183 7.39961 45.5134 8.99961L50.3291 0.699612H47.3193L38.9922 14.9996L38.7915 15.1996C36.5843 17.6996 34.4775 19.6996 33.1733 19.6996C32.471 19.6996 32.17 19.1996 32.8723 18.0996L39.2932 6.89961H41.701L42.6039 5.49961H40.0958L42.9049 0.599609H39.8951L37.086 5.49961H34.3772L33.4742 6.89961H36.183L30.1635 17.2996C28.8592 19.4996 29.7622 21.5996 32.17 21.5996C33.3739 21.5996 34.6782 20.9996 35.9824 19.9996L35.1798 21.2996H38.1896L42.7043 13.3996C47.3193 7.59961 49.3258 8.39961 48.1219 10.5996L44.2092 17.3996C42.9049 19.5996 43.8079 21.6996 46.2157 21.6996C48.0216 21.6996 50.0281 20.2996 51.834 18.4996C51.9343 20.3996 53.5395 21.6996 55.9474 21.6996C59.3585 21.6996 62.7695 19.0996 65.1774 16.1996C65.2777 15.5996 64.7761 15.1996 64.3748 14.9996ZM58.6562 10.7996C60.3617 7.79961 63.4718 8.29961 61.666 11.3996L61.2647 12.0996C59.8601 14.4996 57.8536 14.4996 56.75 14.0996L58.6562 10.7996Z" fill="#766458"/>
<path d="M173.831 15L173.63 15.2C172.527 16.5 171.222 17.6 170.018 18.5C171.022 15.6 170.721 11.3 172.627 7.4L170.42 6.2C169.216 7.9 166.507 11.8 163.698 15L163.497 15.2C161.29 17.7 159.183 19.7 157.879 19.7C157.177 19.7 156.876 19.2 157.578 18.1L163.999 6.9H160.989L155.672 16.2C153.364 18.3 151.659 19.4 151.057 19.2C150.354 18.9 151.057 17.8 151.458 17.1L157.277 6.9H154.267L149.552 15L149.351 15.2C147.947 16.7 146.341 17.4 144.836 17.4L147.646 12.5C149.451 9.4 147.746 6.4 144.937 6.4C142.629 6.4 140.823 7.3 139.118 10.3L137.613 12.9L136.409 15L136.208 15.2C134.001 17.7 131.292 19.7 129.185 19.7C127.38 19.7 126.276 18.5 127.58 16.1L127.881 15.6C129.787 16.4 133.5 16 135.707 12.1L136.108 11.4C137.713 8.6 136.208 6.6 133.7 6.6C131.292 6.6 129.386 7.9 128.082 10.1L125.172 15.1L124.972 15.3C122.464 18.2 120.357 20 117.949 21L124.671 9.5H122.865C122.865 8.3 121.561 6.6 119.755 6.6C118.15 6.6 115.842 7.9 114.638 10.1L111.729 15.1L111.528 15.3C109.321 17.8 107.214 19.8 105.91 19.8C105.207 19.8 104.906 19.3 105.609 18.2L108.619 13C109.622 11.2 109.12 10.1 108.217 8.9L106.512 6.9C106.11 6.4 106.11 5.7 106.712 5.2L105.107 3.5C103.402 5 103.301 6.7 104.305 8.1L104.606 8.4C103.301 10.3 101.495 12.8 99.4889 15.1L99.2882 15.3C97.8836 16.8 96.2784 17.5 94.7735 17.5L97.5827 12.6C99.3885 9.5 97.683 6.5 94.8739 6.5C92.5664 6.5 90.7605 7.4 89.0549 10.4L87.55 13L86.3461 15.1L86.1455 15.3C83.6373 18.2 81.5304 20 79.1226 21L85.8445 9.5H84.0386C84.0386 8.3 82.7344 6.6 80.9285 6.6C79.3233 6.6 77.0158 7.9 75.8118 10.1L71.5981 17.4C70.2939 19.6 71.1968 21.7 73.6047 21.7C74.4073 21.7 75.4105 21.3 76.5141 20.7L75.7115 22.1C71.6984 23.3 69.09 25 69.09 27.2C69.09 30.1 73.5043 30.7 75.7115 27L78.019 23.1C80.4268 22.4 82.7344 20.9 85.2425 18.6C85.2425 22.4 90.5598 23.2 93.7703 19.1H94.4725C96.2784 19.1 99.0876 18 100.592 16.2C101.997 14.5 103.201 13 105.609 9.8L106.01 10.3C106.411 10.8 106.512 11.4 106.211 12L103 17.5C101.696 19.7 102.599 21.8 105.007 21.8C106.512 21.8 108.217 20.8 109.822 19.4C109.822 20.8 110.725 21.8 112.431 21.8C113.234 21.8 114.237 21.4 115.34 20.8L114.638 22C110.625 23.2 108.017 24.9 108.017 27.1C108.017 30 112.431 30.6 114.638 26.9L116.946 23C119.353 22.2 121.761 20.8 124.27 18.4C124.37 20.3 125.875 21.6 128.383 21.6C130.791 21.6 133.299 20.2 135.305 18.4C135.205 22.3 140.623 23.1 143.833 19H144.535C145.438 19 146.743 18.7 147.846 18.1C147.044 20.2 147.746 21.6 149.451 21.6C151.057 21.6 152.963 20.1 154.367 18.7C154.066 20.3 155.07 21.6 156.976 21.6C159.484 21.6 162.293 19 164.801 16.1C166.507 14.1 168.012 12 169.115 10.6C167.911 13.7 168.614 19.3 165.704 19.3C164.701 19.3 164.3 18.2 164.3 18.2L162.394 19.2C162.394 19.2 162.895 21.6 165.704 21.6C166.005 21.6 166.206 21.6 166.507 21.5H166.607C169.717 21.1 172.727 18.7 174.934 16.1C174.834 15.6 174.332 15.1 173.831 15ZM130.791 10.8C132.496 7.8 135.606 8.3 133.801 11.4L133.399 12.1C131.995 14.5 129.988 14.5 128.885 14.1L130.791 10.8ZM73.404 26.4C72.802 27.5 71.7988 27.4 71.7988 26.5C71.7988 25.7 72.5011 24.8 74.8086 23.9L73.404 26.4ZM74.8086 19.7C74.1063 19.7 73.8053 19.2 74.5076 18.1L78.7213 10.8C80.3265 8 83.537 8.7 82.0321 11.4L79.7246 15.4C77.9187 18.3 76.0125 19.7 74.8086 19.7ZM93.2686 15.2H93.1683C92.165 15.2 91.3624 16 91.3624 17C91.3624 17.4 91.4628 17.7 91.6634 18V18.1C90.2588 20.5 86.8477 20.1 88.5533 16.9L90.8608 13L92.2654 10.6C94.3722 7 97.2817 8.4 95.4758 11.5L93.2686 15.2ZM112.13 26.4C111.528 27.5 110.525 27.4 110.525 26.5C110.525 25.7 111.227 24.8 113.535 23.9L112.13 26.4ZM113.535 19.7C112.832 19.7 112.531 19.2 113.234 18.1L117.447 10.8C119.053 8 122.263 8.7 120.758 11.4L118.451 15.4C116.645 18.3 114.738 19.7 113.535 19.7ZM143.131 15.2H143.031C142.027 15.2 141.225 16 141.225 17C141.225 17.4 141.325 17.7 141.526 18V18.1C140.121 20.5 136.71 20.1 138.416 16.9L140.723 13L142.128 10.6C144.234 7 147.144 8.4 145.338 11.5L143.131 15.2Z" fill="#766458"/>
</svg>
