<svg width="102" height="84" viewBox="0 0 102 84" fill="none" xmlns="http://www.w3.org/2000/svg">
<g id="logotype-mobile.svg">
<g id="Layer 2 1">
<g id="Group">
<g id="Group_2">
<path id="Vector" d="M100.607 0.5L50.6019 58.3334L1.08631 0.5H100.607Z" fill="#23A9E1" stroke="black"/>
</g>
<path id="Vector_2" d="M101.1 23.018L50.5861 83.1962L0.5 22.3207V0.5H50.9H101.1V23.018ZM51 57.8L51.2905 57.4126L98.4803 2.1246L99.1841 1.3H98.1H50.9H3.7H2.62536L3.31753 2.12205L50.2175 57.822L50.6226 58.3032L51 57.8Z" fill="#491213" stroke="black"/>
<path id="Vector_3" d="M77.2192 25.5292L50.5816 56.703L20.9096 21.547C22.8372 18.3036 25.127 16.5508 27.5736 16.3737C30.098 16.1909 33.0053 17.6689 36.1123 21.4157C37.0714 22.6154 37.6458 23.7061 38.1268 24.6194C38.2289 24.8134 38.3269 24.9993 38.4233 25.1765C38.9479 26.1403 39.515 27.0307 40.6696 27.0991C42.5393 27.2156 43.5571 26.0984 44.359 25.0546C44.4644 24.9175 44.5649 24.7833 44.6629 24.6525C44.9509 24.2681 45.2167 23.9133 45.5182 23.5997C45.9073 23.195 46.3128 22.909 46.8091 22.788C48.1756 22.5064 49.0288 22.6308 49.6929 22.8703C50.0358 22.994 50.342 23.1532 50.6653 23.3296C50.7069 23.3523 50.7491 23.3754 50.7918 23.3989C51.0724 23.5529 51.3755 23.7192 51.703 23.8596L51.7136 23.8641L51.7244 23.8682C52.1514 24.0283 52.5485 24.1337 52.8996 24.2235C52.9364 24.2329 52.9725 24.2421 53.008 24.2511C53.3192 24.3304 53.5794 24.3966 53.8174 24.4827C54.3037 24.6586 54.663 24.903 54.9469 25.5114L54.9467 25.5115L54.9528 25.5236C55.1273 25.8727 55.2703 26.2117 55.4161 26.5573C55.4724 26.6907 55.529 26.825 55.5881 26.9613C55.7944 27.4374 56.024 27.9217 56.344 28.3668C57.0083 29.2911 58.0087 29.974 59.8131 30.2924L59.8131 30.2924L59.819 30.2934C63.3211 30.8684 66.3616 29.789 69.3234 28.509C69.7949 28.3052 70.2639 28.0967 70.7327 27.8883C72.8332 26.9545 74.9278 26.0232 77.2192 25.5292Z" fill="#491213" stroke="black"/>
<g id="Group_3">
<g id="Group_4">
<path id="Vector_4" d="M23.6841 31.8799L23.364 31.4958L22.9799 31.8159C22.3779 32.3176 20.9263 33.544 19.5886 34.6816C18.266 35.8064 17.0153 36.8776 16.8465 37.0464L16.8029 37.09L16.7713 37.1428C16.722 37.2249 16.6874 37.3068 16.664 37.3869C16.5383 37.235 16.4122 37.0837 16.2869 36.9332L16.2841 36.9299C15.9155 36.4875 15.5531 36.0526 15.2149 35.619C15.1762 35.557 15.1322 35.5055 15.1038 35.4731C15.059 35.4222 15.0067 35.3683 14.9551 35.3168C14.9496 35.3112 14.944 35.3056 14.9383 35.3H14.9495L14.9981 35.2903C15.1103 35.2678 15.2137 35.2143 15.2763 35.1799C15.3525 35.138 15.4373 35.0849 15.5263 35.0255C15.705 34.9063 15.9263 34.7448 16.1747 34.5557C16.6729 34.1765 17.3036 33.6686 17.9672 33.124C18.7263 32.501 19.5576 31.8054 20.2824 31.1989C20.8053 30.7613 21.2729 30.3701 21.6179 30.086L22.0238 29.7517C22.2407 30.0188 22.4657 30.2905 22.6927 30.5598C23.3346 31.3213 23.9974 32.0695 24.5401 32.6423C24.8109 32.9281 25.0564 33.1752 25.2571 33.3599C25.2692 33.371 25.2812 33.382 25.2931 33.3928C25.0693 33.6783 24.8385 33.9709 24.6064 34.265C24.6896 33.2966 24.1926 32.4901 23.6841 31.8799ZM14.2815 34.5966C14.2816 34.5966 14.2823 34.598 14.2834 34.6006C14.282 34.5979 14.2815 34.5966 14.2815 34.5966ZM20.9561 28.3784C21.221 28.7397 21.5365 29.1465 21.8766 29.5695L21.6536 29.3464C21.0644 28.7573 20.3818 28.1601 19.442 28.015C19.6301 27.9111 19.8178 27.8062 20.0057 27.7012C20.1244 27.6348 20.2433 27.5684 20.3624 27.5021C20.3678 27.5112 20.3733 27.5203 20.3788 27.5295C20.5226 27.769 20.7227 28.06 20.9561 28.3784Z" fill="white" stroke="black"/>
</g>
<g id="Group_5">
<path id="Vector_5" d="M11.2977 30.083C11.1768 30.212 11.0447 30.3838 10.9642 30.5918C10.9473 30.5685 10.9313 30.5455 10.916 30.5226L10.9059 30.5075L10.8947 30.493C10.5352 30.0308 10.1516 29.5961 9.77976 29.1747L9.77492 29.1692C9.61634 28.9895 9.45988 28.8121 9.30658 28.6345C9.38935 28.6252 9.47608 28.6058 9.56502 28.5723C9.62184 28.5533 9.66774 28.5291 9.69072 28.5167C9.72941 28.496 9.76974 28.4715 9.80903 28.4464C9.88815 28.3959 9.98408 28.3294 10.0913 28.2518C10.3069 28.0958 10.5876 27.8813 10.9081 27.6285C11.55 27.1223 12.3647 26.4522 13.1631 25.7669C13.9604 25.0827 14.7483 24.3774 15.3334 23.8018C15.6246 23.5154 15.8753 23.2516 16.0533 23.0334C16.1412 22.9256 16.2226 22.8154 16.2825 22.7102C16.2832 22.7088 16.284 22.7074 16.2848 22.7061C16.6636 23.1767 17.0416 23.6257 17.4157 24.0698L17.4175 24.0721C17.6193 24.3117 17.82 24.55 18.0199 24.7906C17.9872 24.7937 17.9536 24.7987 17.9191 24.8057C17.8064 24.8214 17.7136 24.8649 17.6724 24.8845C17.598 24.9197 17.5179 24.9658 17.4377 25.0156C17.276 25.1162 17.0766 25.2557 16.8546 25.4196C16.4086 25.7489 15.8416 26.1989 15.2452 26.6886C14.0629 27.6593 12.7423 28.8048 11.979 29.5157C11.9602 29.5297 11.9403 29.5444 11.9195 29.5598C11.7408 29.6919 11.4921 29.8757 11.2977 30.083ZM11.4116 31.4884C11.4168 31.4157 11.4168 31.3388 11.4146 31.2723C11.3887 31.2649 11.3586 31.2592 11.3248 31.2572C11.2328 31.2516 11.1428 31.2755 11.0678 31.3216C11.037 31.3406 11.012 31.3613 10.992 31.381C10.9929 31.3823 10.9939 31.3836 10.9948 31.3849C11.014 31.4116 11.0588 31.469 11.1361 31.5172C11.1825 31.5462 11.2435 31.5729 11.3145 31.5855L11.4116 31.4884ZM11.3626 31.5916L11.4039 31.5641C11.4025 31.574 11.401 31.5837 11.3994 31.5931C11.3869 31.5931 11.3746 31.5926 11.3626 31.5916Z" fill="white" stroke="black"/>
</g>
<g id="Group_6">
<path id="Vector_6" d="M4.51824 22.5338L4.52164 22.5461L4.52566 22.5581C5.0115 24.0156 6.16965 24.8334 7.4978 25.0162C7.47967 25.0239 7.46156 25.0316 7.44347 25.0392C7.09116 25.1875 6.75706 25.3197 6.49729 25.4077C6.45758 25.4212 6.42062 25.4333 6.38646 25.444C6.10409 24.9292 5.73026 24.5252 5.36089 24.1664C5.23177 24.0409 5.10603 23.9233 4.9838 23.8089C4.66581 23.5113 4.37164 23.2361 4.10387 22.9044C3.35198 21.771 2.90942 20.5853 2.99872 19.2358C3.08844 18.0799 3.74423 16.7903 4.73464 15.8348C5.72361 14.8808 6.97752 14.3228 8.23048 14.4951C9.44503 14.6691 10.5424 15.5525 11.413 16.6166L11.4195 16.6245L11.4263 16.6322C11.6778 16.9152 11.8736 17.201 12.0854 17.5103C12.194 17.6688 12.3069 17.8336 12.4336 18.0072C12.6889 18.3571 12.9817 18.7109 13.3662 19.0129C13.0379 19.4245 12.7207 19.8348 12.4063 20.2418L12.4044 20.2443C12.2546 20.4381 12.1054 20.6312 11.9555 20.8238C12.2149 20.0099 12.2904 19.0837 11.9682 18.2244L11.9629 18.2105L11.9569 18.1969C11.477 17.1172 10.5632 16.5722 9.58516 16.4536C8.6287 16.3377 7.6081 16.6251 6.81599 17.1884C5.20015 18.2694 3.9438 20.4658 4.51824 22.5338Z" fill="white" stroke="black"/>
</g>
<g id="Group_7">
<path id="Vector_7" d="M43.6 55.1C43.65 55.15 43.7 55.225 43.75 55.3C43.7844 55.3516 43.8188 55.4032 43.8532 55.4467C43.8504 55.4548 43.8477 55.4619 43.8453 55.4679L43.6 55.1ZM43.6 55.1C43.6 55.1 43.5447 55.1369 43.4895 55.179L43.4955 55.2045L43.6 55.1ZM48.0145 61.0626C47.7315 61.4605 47.4478 61.8458 47.1615 62.2344C47.177 61.8888 47.1484 61.549 47.0932 61.2178C47.0315 60.8473 46.8056 60.21 46.4727 59.683C46.3052 59.4177 46.09 59.1471 45.8249 58.9547C45.554 58.7581 45.1991 58.6232 44.7969 58.7107C44.4226 58.7871 44.0697 59.0289 43.7979 59.2489C43.5149 59.478 43.2496 59.7432 43.0531 59.9398L43.0464 59.9464C42.8775 60.1154 42.8873 60.3207 42.8988 60.4004C42.9108 60.4838 42.9396 60.5511 42.9579 60.5894C42.939 60.5814 42.9197 60.5739 42.8999 60.5672C42.7888 60.5295 42.6532 60.511 42.5071 60.5438C42.3669 60.5752 42.2507 60.6464 42.1594 60.7338C41.9242 60.9425 41.5929 61.2223 41.2216 61.5358C40.8748 61.8287 40.4932 62.1509 40.1225 62.4722C39.7459 62.7986 39.3867 63.119 39.1132 63.386C38.9772 63.5188 38.8547 63.6457 38.7599 63.7582C38.7126 63.8143 38.6663 63.8737 38.6272 63.9337C38.5984 63.9778 38.5573 64.0461 38.5293 64.1298C38.5156 64.1653 38.506 64.2002 38.4992 64.233C38.3111 64.0112 38.0968 63.7536 37.8736 63.4824C37.4764 62.9994 37.055 62.4777 36.7102 62.0456C36.9577 62.056 37.2698 62.021 37.5774 61.816L37.6185 61.7886L37.6536 61.7536C37.6534 61.7537 37.6548 61.7525 37.6579 61.75C37.6753 61.7356 37.7461 61.6772 37.8939 61.5595C38.0047 61.4712 38.144 61.3611 38.3065 61.2326C38.3737 61.1794 38.4449 61.1231 38.5197 61.0639C39.0295 60.6605 39.7009 60.1271 40.3916 59.562C41.0816 58.9974 41.7951 58.3978 42.3884 57.8616C42.9658 57.3398 43.476 56.8375 43.716 56.4774C43.7793 56.3825 43.8177 56.2848 43.8407 56.1923C43.9684 56.3477 44.1264 56.5455 44.3109 56.7788C44.4139 56.9091 44.5236 57.0485 44.6386 57.1946C44.929 57.5635 45.2529 57.975 45.5854 58.3884C46.0499 58.9659 46.5382 59.5559 46.9884 60.054C47.3464 60.45 47.702 60.8128 48.0145 61.0626ZM44.2778 62.8105C44.2559 62.4185 44.118 62.0686 43.9513 61.7578C43.9978 61.8049 44.0313 61.8384 44.046 61.8531L44.0464 61.8536L44.1038 61.9109L44.1764 61.9472C44.3917 62.0549 44.6131 62.13 44.8513 62.1466C44.6709 62.3546 44.4747 62.5819 44.2778 62.8105ZM45.8162 61.8017C45.8897 61.719 45.946 61.6566 45.9802 61.6204C45.9827 61.6096 45.9848 61.5984 45.9867 61.5867C45.9924 61.5496 45.9945 61.5082 45.9899 61.4634C45.9568 61.4611 45.9148 61.4639 45.8692 61.4692C45.8096 61.4762 45.7439 61.4877 45.6842 61.4981C45.6567 61.5029 45.6305 61.5074 45.6068 61.5112L45.8162 61.8017ZM38.5568 65.0597C38.5568 65.0597 38.5569 65.0588 38.5571 65.0571L38.5568 65.0597ZM48.2132 61.0868L48.3647 60.9353L48.4 60.9L48.5 60.8V61V61.03V61.2422C48.4969 61.2466 48.4938 61.251 48.4906 61.2555C48.4766 61.2551 48.4648 61.2542 48.4559 61.2532C48.4238 61.2498 48.3985 61.2432 48.3794 61.2368C48.364 61.2317 48.3262 61.2182 48.2811 61.1876C48.276 61.1841 48.2693 61.1794 48.2613 61.1734C48.2595 61.171 48.2577 61.1685 48.256 61.166C48.239 61.1419 48.2246 61.1152 48.2132 61.0868ZM48.2484 60.7444C48.2484 60.7444 48.2479 60.745 48.2468 60.7461C48.2478 60.745 48.2483 60.7444 48.2484 60.7444Z" fill="white" stroke="black"/>
</g>
<g id="Group_8">
<path id="Vector_8" d="M38.7019 49.6025L38.7019 49.6026L38.7044 49.6057C40.2358 51.5875 39.9764 54.4779 37.9885 56.2083C36.7824 57.0842 35.4648 57.4351 34.2381 57.279C33.0099 57.1227 31.8279 56.4526 30.9018 55.2024C29.3554 53.1098 29.6283 50.3072 31.6235 48.5813C33.7781 46.789 36.9537 47.3023 38.7019 49.6025ZM36.6411 54.4411C37.18 53.9021 37.6574 53.2841 37.9994 52.6491C38.0008 52.648 38.0021 52.647 38.0033 52.6461C38.0305 52.6239 38.0501 52.603 38.0618 52.5897C38.0743 52.5755 38.084 52.563 38.0906 52.554C38.1035 52.5363 38.1127 52.5213 38.1177 52.5128C38.1233 52.5035 38.1276 52.4955 38.1306 52.4898C38.1365 52.4787 38.1409 52.4693 38.1436 52.4636C38.149 52.4519 38.1536 52.4412 38.1565 52.434C38.1628 52.4188 38.1693 52.4021 38.1752 52.3865C38.1814 52.3702 38.1881 52.3521 38.1949 52.3334C38.2085 52.2959 38.2237 52.253 38.238 52.2111C38.2521 52.1698 38.2664 52.1265 38.2779 52.0892C38.2835 52.0709 38.2896 52.0504 38.2948 52.0306C38.2974 52.0207 38.3007 52.0079 38.3037 51.9937C38.3049 51.9884 38.3062 51.982 38.3075 51.9747C38.6602 51.0197 38.5254 50.0405 37.9546 49.3746C37.3452 48.6636 36.3372 48.4219 35.2271 48.8308L35.2271 48.8306L35.2143 48.8358C34.3865 49.1669 33.5564 49.7614 32.8589 50.4589C32.1614 51.1564 31.5669 51.9865 31.2358 52.8143L31.2357 52.8143L31.234 52.8188C30.8296 53.8587 30.9781 54.893 31.5913 55.5725C32.215 56.2636 33.2205 56.4785 34.2812 56.066L34.2812 56.066L34.2857 56.0642C35.1135 55.7331 35.9436 55.1386 36.6411 54.4411Z" fill="white" stroke="black"/>
</g>
<g id="Group_9">
<path id="Vector_9" d="M31.9981 41.5097L31.9822 41.5065L31.9661 41.5044C30.4722 41.3052 28.7288 41.7474 27.5564 42.0448C27.4635 42.0684 27.3742 42.091 27.2889 42.1124C26.9327 42.1873 26.5337 42.4204 26.1738 42.6708C25.7919 42.9365 25.3878 43.2696 25.0162 43.6027C24.6437 43.9367 24.2962 44.2776 24.0269 44.5632C23.8924 44.7057 23.7745 44.8376 23.6815 44.9501C23.5983 45.0507 23.5062 45.1696 23.4528 45.2764L23.4 45.382V45.3976C23.3933 45.3896 23.3863 45.3815 23.3791 45.3735C22.9778 44.8724 22.5528 44.3725 22.1335 43.8791L22.131 43.8762C21.9474 43.6602 21.7649 43.4455 21.5851 43.2316C21.6803 43.2264 21.7812 43.2061 21.8857 43.1642C22.0791 43.0869 22.3283 42.9163 22.5591 42.7463C22.8067 42.5638 23.0893 42.3389 23.3666 42.112C23.6736 41.8608 23.9623 41.6174 24.2039 41.4138C24.4163 41.2348 24.5923 41.0865 24.7123 40.9904L24.7237 40.9814L24.7345 40.9716C25.0595 40.6791 25.3313 40.2246 25.5547 39.7633C25.7843 39.2892 25.9887 38.7524 26.1606 38.2492C26.3331 37.7444 26.4763 37.2638 26.5818 36.9002C26.6065 36.8151 26.6285 36.7383 26.6484 36.6691C26.6719 36.5874 26.6923 36.5163 26.7105 36.4546C26.7269 36.3985 26.7396 36.3563 26.7492 36.3265C26.753 36.3147 26.7556 36.3071 26.7571 36.3028C26.8007 36.2064 26.8183 36.1017 26.8268 36.0481C26.8391 35.9705 26.8486 35.8817 26.8561 35.7915C26.87 35.6249 26.8793 35.429 26.8856 35.2409C26.9238 35.2954 26.9633 35.351 27 35.4L27.0063 35.4084L27.013 35.4166L28.363 37.0666L29.0339 37.8865C28.8536 37.9006 28.6719 37.9661 28.5005 38.0994C28.3815 38.1862 28.2981 38.3078 28.25 38.3826C28.1873 38.48 28.1252 38.5956 28.0656 38.7164C27.9459 38.9592 27.8182 39.2612 27.6976 39.566C27.4555 40.1776 27.2273 40.8371 27.1257 41.1419L26.863 41.9297L27.6822 41.7932L27.6845 41.7928C27.9855 41.7426 28.7477 41.6156 29.4631 41.4495C29.8199 41.3667 30.1801 41.2708 30.4706 41.1653C30.6149 41.1129 30.7575 41.0527 30.8789 40.9829C30.9801 40.9247 31.1524 40.8131 31.2472 40.6236L31.2565 40.605L31.2642 40.5857C31.2762 40.5557 31.2866 40.526 31.2955 40.4967C31.6 40.8461 31.9091 41.2051 32.2101 41.5678C32.144 41.5452 32.0728 41.5247 31.9981 41.5097ZM23.5507 46.3528C23.5507 46.3528 23.5508 46.3522 23.5509 46.3511L23.5507 46.3528ZM31.2204 39.6535C31.2205 39.6535 31.2208 39.6549 31.2213 39.6573C31.2206 39.6547 31.2203 39.6534 31.2204 39.6535ZM31.9873 41.5637C32.0002 41.5696 32.0174 41.5782 32.0367 41.5899L31.9 42V41.5475C31.9017 41.5473 31.9033 41.5471 31.9047 41.5469C31.9182 41.5454 31.9286 41.5448 31.9345 41.5446C31.9352 41.5446 31.9359 41.5446 31.9365 41.5446C31.9423 41.5463 31.9503 41.5489 31.9597 41.5524C31.963 41.5536 31.9664 41.5549 31.97 41.5564C31.9741 41.558 31.98 41.5605 31.9873 41.5637Z" fill="white" stroke="black"/>
</g>
</g>
<g id="Group_10">
<g id="Group_11">
<path id="Vector_10" d="M65.7915 52.2284C65.4964 52.2789 65.2255 52.3833 64.9731 52.5306C64.4586 52.8307 64.0407 53.3012 63.6657 53.7235C63.6525 53.7383 63.6394 53.7531 63.6263 53.7678L63.2962 54.1392L63.6655 54.4716C63.8857 54.6698 64.1061 54.8781 64.3341 55.0935C64.3593 55.1173 64.3845 55.1411 64.4098 55.1651C64.6629 55.4041 64.9248 55.6501 65.1945 55.8877C65.7323 56.3615 66.3199 56.819 66.9764 57.1472C67.4181 57.3681 67.8587 57.3523 68.2449 57.1745C68.2789 57.1589 68.3121 57.1422 68.3447 57.1244C68.3045 57.1737 68.2644 57.223 68.2243 57.2723C67.4958 58.1696 66.7653 59.1138 66.2769 59.7497C66.2761 59.7471 66.2752 59.7445 66.2743 59.7419L66.2631 59.7082L66.2472 59.6764C66.2148 59.6115 66.1726 59.5586 66.1507 59.5318C66.1228 59.4977 66.0907 59.4621 66.0578 59.4272C65.9915 59.3568 65.9059 59.2724 65.8067 59.1782C65.6076 58.9889 65.3376 58.745 65.022 58.468C64.3901 57.9133 63.5633 57.2154 62.7277 56.5369C61.8932 55.8592 61.0436 55.1957 60.3675 54.7121C60.031 54.4714 59.7272 54.2679 59.485 54.1289C59.3657 54.0603 59.2459 53.9985 59.1361 53.9569C59.1152 53.949 59.0925 53.9409 59.0682 53.9334C59.1022 53.9024 59.1337 53.8734 59.1536 53.8536L59.1731 53.834L59.1904 53.8123C59.3626 53.5971 59.6704 53.2456 60.0537 52.8077C60.0958 52.7597 60.1387 52.7106 60.1825 52.6605C60.5793 52.2071 61.036 51.683 61.4755 51.156C61.3734 51.3703 61.325 51.5932 61.3366 51.8222C61.3545 52.1751 61.5117 52.4707 61.6907 52.7042C61.8689 52.9367 62.094 53.1401 62.2999 53.312C62.3945 53.391 62.4906 53.4677 62.5798 53.5389C62.5889 53.5462 62.5979 53.5534 62.6068 53.5605C62.7055 53.6394 62.7945 53.711 62.8746 53.7796L63.2798 54.1269L63.6 53.7C63.6927 53.5764 63.7896 53.4602 63.8951 53.3337C63.9525 53.2649 64.0124 53.1931 64.0756 53.1153C64.2412 52.9115 64.4211 52.6758 64.5472 52.4236C64.7106 52.0969 64.684 51.7792 64.6121 51.5256C64.7998 51.6309 65.0059 51.7516 65.2178 51.8787C65.4105 51.9944 65.605 52.1135 65.7915 52.2284ZM63.2208 48.7365C63.5917 48.9285 63.9621 49.1109 64.3313 49.2872C64.2631 49.2891 64.1949 49.2946 64.1287 49.305C63.4512 49.3919 62.7901 49.7142 62.2594 50.1831C62.4899 49.8839 62.7002 49.5952 62.874 49.3311C63.0095 49.125 63.1298 48.9236 63.2208 48.7365ZM69.874 53.0497C70.1818 53.521 70.489 53.9842 70.7956 54.4446C70.764 54.4701 70.7324 54.4965 70.7007 54.5236C70.4817 54.7112 70.2321 54.9593 69.9681 55.2408C69.8167 55.4023 69.6581 55.5774 69.4947 55.7625C69.7146 55.3029 69.8548 54.8229 69.896 54.4632C69.9643 53.9794 69.9477 53.5 69.874 53.0497Z" fill="white" stroke="black"/>
</g>
<g id="Group_12">
<path id="Vector_11" d="M55.176 58.935L55.1634 58.9551L55.1528 58.9764C54.8239 59.6342 54.8998 60.3522 55.3046 60.8341C55.7227 61.3317 56.4202 61.4911 57.1078 61.155C57.2126 61.1097 57.3498 61.0289 57.4748 60.9547C57.5244 60.9253 57.5766 60.894 57.6317 60.861C57.7473 60.7918 57.8759 60.7148 58.0207 60.6303C58.4443 60.3832 58.9739 60.0918 59.5464 59.8473C60.1216 59.6016 60.7198 59.4123 61.2817 59.3553C61.8311 59.2995 62.3155 59.3727 62.7146 59.6116C63.457 60.1996 63.7465 60.9823 63.7252 61.8248C63.7032 62.6906 63.3495 63.6191 62.7956 64.4058C62.2246 65.166 61.5547 65.8372 60.8772 66.4181C60.8511 66.4399 60.8248 66.4617 60.7983 66.4836C60.5413 66.6968 60.2759 66.9169 60.0701 67.1777C59.9683 67.3066 59.8816 67.4438 59.8105 67.5945C59.4208 67.3197 59.0366 67.0357 58.6472 66.7479L58.6426 66.7445C58.6152 66.7243 58.5879 66.7041 58.5605 66.6838C58.9766 66.7326 59.4134 66.7164 59.8284 66.584C60.4314 66.4558 61.0258 66.1036 61.5055 65.6513C61.9948 65.19 62.4032 64.5885 62.5824 63.9316L62.586 63.9183L62.5889 63.9048C62.6803 63.4781 62.6589 63.0828 62.5156 62.7421C62.3708 62.3979 62.1176 62.1481 61.8165 61.993C61.2316 61.6917 60.4851 61.7484 59.8764 62.0528C59.3612 62.3104 58.7772 62.7061 58.2684 63.0509C58.1519 63.1298 58.0394 63.206 57.9326 63.2773C56.9396 63.8716 55.978 64.2124 55.1482 63.7658C54.2624 63.2308 53.7 62.3777 53.7 61.5C53.7 60.3987 54.2848 59.5215 55.0637 58.6435C55.215 58.4936 55.3977 58.3434 55.6084 58.1743C55.6318 58.1554 55.6556 58.1364 55.6796 58.1171C55.8698 57.9648 56.0782 57.7978 56.2738 57.62C56.5671 57.3534 56.8651 57.0336 57.0692 56.6379C57.4688 56.8846 57.8547 57.1488 58.258 57.4265C58.1328 57.4133 57.9969 57.4 57.9 57.4H57.8723L57.8448 57.4031C56.8507 57.5135 55.7835 57.963 55.176 58.935Z" fill="white" stroke="black"/>
</g>
<g id="Group_13">
<g id="Vector_12">
<mask id="path-12-inside-1" fill="white">
<path d="M63 59.2C64 59.7 62.4 58.7 63 59.2V59.2Z"/>
</mask>
<path d="M63 59.2C64 59.7 62.4 58.7 63 59.2V59.2Z" fill="white"/>
<path d="M62.5528 60.0944C62.6208 60.1284 62.6814 60.1579 62.7348 60.1829C62.787 60.2073 62.8387 60.2304 62.8876 60.2501C62.9122 60.2601 62.941 60.2712 62.9722 60.2819C63.0005 60.2916 63.047 60.3066 63.1034 60.3191C63.1321 60.3255 63.1748 60.3338 63.2267 60.339C63.2734 60.3438 63.3613 60.3498 63.4697 60.3348C63.5261 60.3271 63.602 60.3118 63.6874 60.2796C63.7734 60.2473 63.8803 60.1935 63.9855 60.1037C64.0944 60.0108 64.1891 59.8896 64.2532 59.7432C64.3164 59.5991 64.3375 59.4591 64.3375 59.3406C64.3375 59.2252 64.3176 59.129 64.2973 59.0592C64.2768 58.9888 64.2518 58.9317 64.231 58.8902C64.1909 58.8099 64.1481 58.7512 64.1228 58.7186C64.0952 58.6831 64.0697 58.6552 64.0515 58.6361C64.0325 58.6162 64.0152 58.5996 64.0013 58.5868C63.9517 58.5409 63.9036 58.5044 63.8754 58.4835C63.8126 58.4372 63.7421 58.3908 63.68 58.352C63.6159 58.312 63.5447 58.2699 63.4763 58.2328C63.4422 58.2143 63.4031 58.194 63.3623 58.1748C63.3417 58.1651 63.3174 58.1541 63.2907 58.143C63.2652 58.1325 63.2289 58.1184 63.1858 58.1049C63.1637 58.098 63.1352 58.0898 63.1019 58.0822C63.0697 58.0748 63.0233 58.0657 62.967 58.0603C62.9144 58.0553 62.8256 58.0507 62.7176 58.067C62.6132 58.0827 62.4339 58.1265 62.2559 58.2625C62.1638 58.3328 62.0787 58.4231 62.0107 58.5335C61.9428 58.6435 61.9017 58.7576 61.8803 58.8657C61.8392 59.0733 61.873 59.2435 61.8996 59.3373C61.9276 59.4356 61.9649 59.5103 61.9894 59.5544C62.0155 59.6015 62.0411 59.6391 62.06 59.6651C62.0971 59.7161 62.1326 59.7557 62.1556 59.7802C62.1806 59.8069 62.2049 59.8307 62.226 59.8506C62.2677 59.8899 62.3135 59.9296 62.3598 59.9682L63.6402 58.4318C63.6265 58.4204 63.6163 58.4116 63.6089 58.4052C63.6014 58.3986 63.5982 58.3955 63.5983 58.3956C63.5984 58.3958 63.5999 58.3972 63.6025 58.3997C63.605 58.4023 63.6093 58.4066 63.615 58.4127C63.6236 58.4219 63.6483 58.4486 63.6775 58.4888C63.6925 58.5095 63.715 58.5422 63.7387 58.585C63.7608 58.6249 63.7965 58.6957 63.8235 58.7907C63.8492 58.8813 63.8829 59.0487 63.8422 59.2541C63.821 59.3611 63.7803 59.4742 63.713 59.5833C63.6455 59.6927 63.5611 59.7822 63.4699 59.8519C63.2936 59.9866 63.1167 60.0294 63.0153 60.0447C62.9103 60.0605 62.8251 60.0559 62.7767 60.0513C62.7246 60.0463 62.6828 60.038 62.6559 60.0318C62.6278 60.0254 62.6051 60.0188 62.5892 60.0139C62.5586 60.0043 62.5367 59.9955 62.5274 59.9917C62.5168 59.9873 62.5102 59.9842 62.5088 59.9835C62.5063 59.9823 62.5109 59.9845 62.5237 59.9914C62.5491 60.0051 62.5841 60.0255 62.62 60.048C62.6579 60.0717 62.6811 60.0878 62.6871 60.0923C62.6933 60.0968 62.6733 60.0828 62.6432 60.055C62.6342 60.0466 62.6212 60.0342 62.606 60.0183C62.5916 60.0032 62.5693 59.9789 62.5443 59.9467C62.5215 59.9175 62.4808 59.8618 62.442 59.7842C62.4219 59.7439 62.3974 59.6881 62.3772 59.6189C62.3572 59.5502 62.3375 59.4551 62.3375 59.3406C62.3375 59.2231 62.3585 59.084 62.4213 58.9407C62.4851 58.7951 62.5792 58.6746 62.6874 58.5823C62.7919 58.4931 62.898 58.4398 62.9828 58.4079C63.0672 58.3761 63.1418 58.3611 63.1968 58.3535C63.3024 58.339 63.3866 58.345 63.4288 58.3493C63.4763 58.3541 63.5138 58.3615 63.5364 58.3665C63.5808 58.3764 63.6118 58.3869 63.621 58.39C63.6332 58.3942 63.6394 58.3968 63.6374 58.396C63.6331 58.3943 63.6161 58.3871 63.5816 58.371C63.5483 58.3554 63.5042 58.3341 63.4472 58.3056L62.5528 60.0944Z" fill="black" mask="url(#path-12-inside-1)"/>
</g>
</g>
<g id="Group_14">
<path id="Vector_13" d="M87.7019 34.1903L87.7415 34.1982C87.6647 34.2937 87.5884 34.3892 87.5124 34.4841L87.5096 34.4877C87.4115 34.6102 87.3142 34.7319 87.2173 34.8521C87.1832 34.7057 87.1173 34.5491 86.9974 34.3965C86.949 34.332 86.8825 34.2679 86.8438 34.2306L86.8432 34.23C86.7813 34.1703 86.7003 34.0958 86.6049 34.0101C86.4134 33.8383 86.1531 33.6121 85.8475 33.352C85.2357 32.8315 84.4348 32.1688 83.6245 31.5218C82.8155 30.8758 81.9908 30.2405 81.3333 29.7772C81.0062 29.5467 80.7098 29.3513 80.4726 29.2179C80.3556 29.1521 80.2375 29.0926 80.1285 29.0526C80.1039 29.0436 80.0766 29.0344 80.0474 29.0261C80.0772 28.9897 80.1071 28.9532 80.137 28.9166L80.1381 28.9153C80.3623 28.6412 80.5887 28.3645 80.7904 28.1123C80.9271 27.9415 81.0605 27.7741 81.1915 27.6096C81.6908 26.9828 82.1565 26.3982 82.6475 25.8222C82.6967 25.9495 82.7848 26.1121 82.9565 26.2356C83.183 26.3985 83.4574 26.4265 83.7294 26.3996C83.8413 26.3975 84.1305 26.3853 84.4824 26.3704C84.6401 26.3638 84.8104 26.3566 84.9829 26.3496C85.599 26.3244 86.2625 26.3 86.6 26.3H87.8071L86.9536 25.4464C86.7364 25.2293 86.2715 24.8169 85.8137 24.4481C85.5836 24.2628 85.3475 24.0821 85.1389 23.9392C85.0349 23.8678 84.9321 23.802 84.8366 23.7487C84.749 23.6999 84.6369 23.6438 84.5213 23.6149L84.4626 23.6003C84.5349 23.5128 84.6085 23.421 84.6823 23.3235C84.7612 23.2375 84.843 23.1219 84.9076 23.0289C84.9168 23.0156 84.9258 23.0027 84.9345 22.99C84.9515 23.0283 84.9753 23.0704 85.0089 23.1119C85.054 23.1703 85.1132 23.2298 85.1511 23.2677C85.2132 23.3299 85.2948 23.4083 85.3917 23.4992C85.586 23.6815 85.8509 23.9226 86.1631 24.2002C86.7877 24.7556 87.6085 25.4632 88.4456 26.1492C89.2805 26.8335 90.141 27.504 90.8424 27.9807C91.1908 28.2175 91.5159 28.4175 91.7874 28.5466C91.9215 28.6105 92.0631 28.667 92.2001 28.697C92.2611 28.7104 92.3509 28.7254 92.4528 28.7195L92.3989 28.8002C92.1625 29.0829 91.9251 29.3441 91.68 29.6137L91.6769 29.6171C91.6604 29.6352 91.6439 29.6534 91.6273 29.6717C91.6268 29.6705 91.6263 29.6694 91.6258 29.6682C91.5895 29.5821 91.5425 29.4975 91.4934 29.4195C91.395 29.2632 91.2667 29.0995 91.1333 28.952C91.0002 28.805 90.8494 28.66 90.701 28.5472C90.6271 28.491 90.544 28.4354 90.4563 28.3917C90.3771 28.3522 90.2501 28.3 90.1 28.3C89.1858 28.3 83.6748 28.5006 81.8723 28.6008L80.5663 28.6733L81.5876 29.4904C81.9534 29.7831 82.4483 30.1894 83.0022 30.6441C83.5992 31.1343 84.2648 31.6807 84.9112 32.2018C85.5248 32.6964 86.1121 33.1607 86.5794 33.5088C86.8125 33.6824 87.0216 33.8315 87.1923 33.9423C87.2773 33.9975 87.359 34.0472 87.4333 34.0866C87.4959 34.1199 87.5947 34.1688 87.7019 34.1903ZM88.6577 33.8371C88.6577 33.8372 88.6563 33.838 88.6537 33.8393C88.6564 33.8377 88.6577 33.837 88.6577 33.8371ZM83.6213 23.8302C83.6213 23.8302 83.6225 23.8298 83.6246 23.8291C83.6223 23.83 83.6213 23.8303 83.6213 23.8302ZM84.9573 22.1403C84.9571 22.1387 84.957 22.1378 84.957 22.1378L84.9573 22.1403ZM93.0274 27.9655L93.0238 27.9691C93.0225 27.9294 93.0198 27.8908 93.0162 27.8539C93.0006 27.6938 92.964 27.5201 92.915 27.3415C92.8169 26.984 92.6564 26.5617 92.458 26.1087C92.0599 25.2003 91.4869 24.1191 90.8801 23.0951C90.2738 22.0719 89.6239 21.0894 89.0682 20.3818C88.7928 20.0311 88.5259 19.7291 88.2883 19.5233C88.1809 19.4302 88.0597 19.3393 87.9305 19.2759C88.085 19.1183 88.2303 18.9609 88.3687 18.8044L89.284 20.1774C89.871 21.0579 90.3616 21.9405 90.8629 22.8428L91.1848 23.4223L91.6536 22.9536C91.9137 22.6934 92.2707 22.4224 92.5524 22.2327C92.6484 22.1842 92.7377 22.1365 92.8174 22.0939L92.8341 22.0849C92.9167 22.0406 92.9856 22.0037 93.0486 21.9722C93.1162 21.9384 93.1632 21.9179 93.1964 21.9063C93.2141 21.9001 93.2222 21.8985 93.2223 21.8985C93.2224 21.8984 93.2144 21.9 93.2 21.9L93.4069 20.9448C92.2996 20.4415 91.0936 19.939 89.8966 19.4403L89.8923 19.4385L88.3692 18.8038C88.6641 18.4703 88.9279 18.1405 89.1842 17.8201L89.1904 17.8123L89.7904 17.0623L90.0513 16.7363C90.0533 16.7414 90.0553 16.7464 90.0573 16.7513C90.0877 16.8257 90.1309 16.9194 90.1929 17.0065C90.2402 17.0728 90.3195 17.1653 90.4403 17.2304C90.5061 17.2772 90.5812 17.3211 90.6512 17.3596C90.7522 17.4152 90.8754 17.4773 91.0149 17.5438C91.2945 17.6772 91.6555 17.8362 92.0686 18.0084C92.8953 18.353 93.9454 18.7566 94.9985 19.1223C96.049 19.4872 97.1154 19.8189 97.9708 20.0154C98.3962 20.1131 98.7883 20.182 99.1082 20.2003C99.2185 20.2067 99.3294 20.2076 99.4359 20.1993C99.0137 20.7325 98.4886 21.3726 98.0034 21.9549C97.7388 22.2724 97.4874 22.5711 97.2729 22.8237C97.1531 22.3349 96.8549 21.9956 96.4597 21.8013C96.0695 21.6095 95.6167 21.5731 95.2037 21.6011C94.3933 21.6561 93.5281 21.9744 93.056 22.263C92.8478 22.3679 92.4919 22.5597 92.2154 22.7925C92.0768 22.9093 91.9128 23.0731 91.8185 23.2801C91.7148 23.5076 91.697 23.795 91.8695 24.0567C91.9876 24.2882 92.2567 24.7745 92.5347 25.2339C92.6812 25.4758 92.8347 25.718 92.9738 25.9158C93.0432 26.0144 93.113 26.1078 93.1797 26.1868C93.229 26.2452 93.2961 26.3198 93.375 26.3815C93.5707 26.5687 93.7957 26.6969 94.0578 26.7117C94.0669 26.7122 94.0759 26.7126 94.0848 26.7128C94.069 26.7325 94.053 26.7525 94.0366 26.7726C93.8543 26.9974 93.6525 27.233 93.468 27.4471C93.4484 27.4699 93.429 27.4925 93.4096 27.5149C93.261 27.6874 93.1229 27.8476 93.0274 27.9655ZM97.1231 23.612C97.1227 23.6133 97.1224 23.6141 97.1224 23.6141L97.1231 23.612ZM90.4024 16.2988C90.4024 16.2989 90.4011 16.3003 90.3985 16.3027C90.4011 16.2999 90.4024 16.2987 90.4024 16.2988ZM89.8737 16.236C89.8716 16.2329 89.8707 16.2312 89.8707 16.231C89.8707 16.2309 89.8718 16.2325 89.8737 16.236ZM92.2257 22.1883C92.155 22.1595 92.0675 22.1035 92.0026 22.0086C92.0826 21.9498 92.1604 21.8948 92.2336 21.8448L92.5017 22.2168C92.4782 22.2211 92.4477 22.225 92.4125 22.225C92.3788 22.225 92.3079 22.2218 92.2257 22.1883Z" fill="white" stroke="black"/>
</g>
<g id="Group_15">
<g id="Vector_14">
<mask id="path-15-inside-2" fill="white">
<path d="M82.6 33C80.2 31 77 31.6 75 33.8C73.1 36.1 73.3 39.5 75.6 41.4C77.9 43.3 81.3 42.8 83.2 40.6C85.1 38.3 85 34.9 82.6 33ZM82.3 39.6C81 40.9 78.9 39.7 77.8 38.9C76.7 38.1 74.7 36.3 75.9 34.8C77 33.5 79 34.6 80.1 35.3C81.3 36.1 83.5 37.9 82.4 39.5C82.5 39.4 82.5 39.4 82.3 39.6Z"/>
</mask>
<path d="M82.6 33C80.2 31 77 31.6 75 33.8C73.1 36.1 73.3 39.5 75.6 41.4C77.9 43.3 81.3 42.8 83.2 40.6C85.1 38.3 85 34.9 82.6 33ZM82.3 39.6C81 40.9 78.9 39.7 77.8 38.9C76.7 38.1 74.7 36.3 75.9 34.8C77 33.5 79 34.6 80.1 35.3C81.3 36.1 83.5 37.9 82.4 39.5C82.5 39.4 82.5 39.4 82.3 39.6Z" fill="white"/>
<path d="M82.6 33L81.9598 33.7682L81.9695 33.7763L81.9793 33.784L82.6 33ZM75 33.8L74.2601 33.1273L74.2441 33.1449L74.229 33.1631L75 33.8ZM83.2 40.6L83.9568 41.2536L83.964 41.2453L83.971 41.2369L83.2 40.6ZM75.9 34.8L75.1366 34.1541L75.1277 34.1646L75.1191 34.1753L75.9 34.8ZM80.1 35.3L80.6547 34.4679L80.6458 34.462L80.6369 34.4563L80.1 35.3ZM82.4 39.5L81.576 38.9335L83.1071 40.2071L82.4 39.5ZM83.2402 32.2318C80.3467 29.8205 76.5438 30.6152 74.2601 33.1273L75.7399 34.4727C77.4562 32.5848 80.0533 32.1795 81.9598 33.7682L83.2402 32.2318ZM74.229 33.1631C72.0044 35.8561 72.2052 39.8927 74.9631 42.171L76.2369 40.629C74.3948 39.1073 74.1956 36.3439 75.771 34.4369L74.229 33.1631ZM74.9631 42.171C77.7299 44.4565 81.7431 43.8168 83.9568 41.2536L82.4432 39.9464C80.8569 41.7832 78.0701 42.1435 76.2369 40.629L74.9631 42.171ZM83.971 41.2369C86.1761 38.5675 86.1213 34.5122 83.2207 32.216L81.9793 33.784C83.8787 35.2878 84.0239 38.0325 82.429 39.9631L83.971 41.2369ZM81.5929 38.8929C81.3073 39.1785 80.9018 39.2637 80.2516 39.0765C79.593 38.8869 78.9045 38.4668 78.3882 38.0913L77.2118 39.7087C77.7954 40.1332 78.7069 40.7131 79.6984 40.9985C80.6982 41.2863 81.9927 41.3215 83.0071 40.3071L81.5929 38.8929ZM78.3882 38.0913C77.8695 37.714 77.2099 37.1483 76.8217 36.5611C76.6305 36.2719 76.5473 36.0398 76.5318 35.8697C76.5192 35.7327 76.5438 35.596 76.6809 35.4247L75.1191 34.1753C74.6562 34.754 74.4808 35.4048 74.5401 36.0522C74.5964 36.6664 74.8569 37.2156 75.1533 37.6639C75.7401 38.5517 76.6305 39.286 77.2118 39.7087L78.3882 38.0913ZM76.6634 35.4459C76.8562 35.218 77.1487 35.1131 77.7501 35.2683C78.362 35.4262 79.0244 35.8008 79.5631 36.1437L80.6369 34.4563C80.0756 34.0992 79.1879 33.5738 78.2499 33.3317C77.3013 33.0869 76.0438 33.082 75.1366 34.1541L76.6634 35.4459ZM79.5453 36.1321C80.1151 36.5119 80.8525 37.0867 81.3125 37.7C81.5402 38.0036 81.6544 38.2574 81.6881 38.4518C81.716 38.6132 81.696 38.7589 81.576 38.9335L83.224 40.0665C83.654 39.4411 83.7715 38.7618 83.6588 38.1107C83.5518 37.4926 83.2473 36.9464 82.9125 36.5C82.2475 35.6133 81.2849 34.8881 80.6547 34.4679L79.5453 36.1321ZM83.1071 40.2071C83.1073 40.2069 83.1075 40.2067 83.1077 40.2065C83.1079 40.2063 83.1081 40.2061 83.1083 40.2059C83.1103 40.2039 83.1074 40.2068 83.1094 40.2048C83.1096 40.2046 83.1098 40.2044 83.11 40.2042C83.1102 40.204 83.1104 40.2038 83.1106 40.2036C83.1108 40.2034 83.111 40.2033 83.1111 40.2031C83.1113 40.2029 83.1115 40.2027 83.1117 40.2025C83.1119 40.2023 83.1121 40.2021 83.1123 40.2019C83.1125 40.2017 83.1127 40.2016 83.1128 40.2014C83.1138 40.2004 83.113 40.2012 83.114 40.2002C83.1142 40.2001 83.1143 40.1999 83.1145 40.1997C83.1147 40.1995 83.1149 40.1993 83.1151 40.1991C83.1153 40.1989 83.1154 40.1988 83.1156 40.1986C83.1158 40.1984 83.116 40.1982 83.1162 40.198C83.1164 40.1978 83.1165 40.1977 83.1167 40.1975C83.1169 40.1973 83.1171 40.1971 83.1173 40.1969C83.1182 40.196 83.1174 40.1968 83.1184 40.1959C83.1185 40.1957 83.1187 40.1955 83.1189 40.1953C83.1191 40.1951 83.1193 40.195 83.1194 40.1948C83.1199 40.1943 83.12 40.1942 83.1205 40.1937C83.1214 40.1928 83.1206 40.1936 83.1215 40.1927C83.1225 40.1917 83.1217 40.1925 83.1226 40.1916C83.1235 40.1907 83.1227 40.1915 83.1236 40.1906C83.1238 40.1904 83.124 40.1902 83.1241 40.1901C83.1243 40.1899 83.1245 40.1897 83.1247 40.1896C83.1248 40.1894 83.125 40.1892 83.1252 40.189C83.1253 40.1889 83.1255 40.1887 83.1257 40.1885C83.1258 40.1884 83.126 40.1882 83.1262 40.188C83.1263 40.1879 83.1265 40.1877 83.1267 40.1875C83.1268 40.1874 83.127 40.1872 83.1272 40.187C83.1273 40.1869 83.1275 40.1867 83.1277 40.1865C83.1281 40.1861 83.1282 40.186 83.1287 40.1855C83.1288 40.1854 83.129 40.1852 83.1291 40.1851C83.1293 40.1849 83.1295 40.1847 83.1296 40.1846C83.1314 40.1828 83.1289 40.1853 83.1306 40.1836C83.1308 40.1834 83.1309 40.1833 83.1311 40.1831C83.1312 40.183 83.1314 40.1828 83.1316 40.1826C83.1317 40.1825 83.1319 40.1823 83.132 40.1822C83.1322 40.182 83.1323 40.1819 83.1325 40.1817C83.1327 40.1815 83.1328 40.1814 83.133 40.1812C83.1331 40.1811 83.1333 40.1809 83.1334 40.1808C83.1336 40.1806 83.1338 40.1805 83.1339 40.1803C83.1341 40.1801 83.1342 40.18 83.1344 40.1798C83.1345 40.1797 83.1347 40.1795 83.1348 40.1794C83.135 40.1792 83.1351 40.1791 83.1353 40.1789C83.1354 40.1788 83.1356 40.1786 83.1357 40.1785C83.1359 40.1783 83.136 40.1782 83.1362 40.178C83.1366 40.1776 83.1367 40.1775 83.1371 40.1771C83.1372 40.177 83.1374 40.1768 83.1375 40.1767C83.1377 40.1765 83.1378 40.1764 83.138 40.1762C83.1381 40.1761 83.1383 40.1759 83.1384 40.1758C83.1386 40.1756 83.1387 40.1755 83.1389 40.1754C83.139 40.1752 83.1391 40.1751 83.1393 40.1749C83.1394 40.1748 83.1396 40.1746 83.1397 40.1745C83.1399 40.1743 83.14 40.1742 83.1401 40.1741C83.1403 40.1739 83.1404 40.1738 83.1406 40.1736C83.1407 40.1735 83.1409 40.1734 83.141 40.1732C83.1411 40.1731 83.1413 40.1729 83.1414 40.1728C83.1416 40.1726 83.1417 40.1725 83.1418 40.1724C83.142 40.1722 83.1421 40.1721 83.1423 40.172C83.1424 40.1718 83.1425 40.1717 83.1427 40.1715C83.1428 40.1714 83.1429 40.1713 83.1431 40.1711C83.1432 40.171 83.1433 40.1709 83.1435 40.1707C83.1436 40.1706 83.1438 40.1705 83.1439 40.1703C83.1446 40.1696 83.144 40.1702 83.1447 40.1695C83.1448 40.1694 83.145 40.1692 83.1451 40.1691C83.1452 40.169 83.1454 40.1689 83.1455 40.1687C83.1456 40.1686 83.1457 40.1685 83.1459 40.1683C83.146 40.1682 83.1461 40.1681 83.1463 40.1679C83.1464 40.1678 83.1465 40.1677 83.1467 40.1676C83.1468 40.1674 83.1469 40.1673 83.147 40.1672C83.1472 40.167 83.1473 40.1669 83.1474 40.1668C83.1475 40.1667 83.1477 40.1665 83.1478 40.1664C83.1491 40.1651 83.1472 40.167 83.1486 40.1657C83.1492 40.165 83.1486 40.1656 83.1493 40.1649C83.1494 40.1648 83.1495 40.1647 83.1497 40.1645C83.1498 40.1644 83.1499 40.1643 83.15 40.1642C83.1507 40.1635 83.1501 40.1641 83.1507 40.1635C83.1509 40.1633 83.151 40.1632 83.1511 40.1631C83.1512 40.163 83.1513 40.1629 83.1514 40.1628C83.1516 40.1626 83.1517 40.1625 83.1518 40.1624C83.1519 40.1623 83.152 40.1622 83.1521 40.1621C83.1523 40.1619 83.1524 40.1618 83.1525 40.1617C83.1526 40.1616 83.1527 40.1615 83.1528 40.1614C83.1534 40.1608 83.1529 40.1613 83.1535 40.1607C83.1536 40.1606 83.1537 40.1605 83.1538 40.1604C83.1539 40.1603 83.1541 40.1601 83.1542 40.16C83.1545 40.1597 83.1545 40.1597 83.1548 40.1594C83.1549 40.1593 83.155 40.1592 83.1551 40.1591C83.1553 40.159 83.1554 40.1589 83.1555 40.1587C83.1566 40.1576 83.155 40.1592 83.1561 40.1581C83.1566 40.1576 83.1562 40.158 83.1567 40.1575C83.1568 40.1574 83.1569 40.1573 83.157 40.1572C83.1571 40.1571 83.1572 40.157 83.1573 40.1569C83.1574 40.1568 83.1575 40.1567 83.1576 40.1566C83.1577 40.1565 83.1578 40.1564 83.1579 40.1563C83.158 40.1562 83.1581 40.1561 83.1582 40.156C83.1583 40.1559 83.1584 40.1558 83.1585 40.1557C83.1586 40.1556 83.1587 40.1555 83.1588 40.1554C83.1589 40.1553 83.159 40.1552 83.1591 40.1551C83.1592 40.155 83.1593 40.1549 83.1594 40.1548C83.1595 40.1547 83.1596 40.1547 83.1596 40.1546C83.1597 40.1545 83.1598 40.1544 83.1599 40.1543C83.16 40.1542 83.1601 40.1541 83.1602 40.154C83.1603 40.1539 83.1604 40.1538 83.1605 40.1537C83.1606 40.1536 83.1606 40.1536 83.1607 40.1535C83.1608 40.1534 83.1609 40.1533 83.161 40.1532C83.1611 40.1531 83.1612 40.153 83.1613 40.1529C83.1614 40.1529 83.1614 40.1528 83.1615 40.1527C83.1616 40.1526 83.1617 40.1525 83.1618 40.1524C83.1619 40.1523 83.162 40.1522 83.162 40.1522C83.1621 40.1521 83.1622 40.152 83.1623 40.1519C83.1632 40.151 83.1619 40.1523 83.1628 40.1514C83.1632 40.151 83.1628 40.1514 83.1633 40.1509C83.1635 40.1507 83.1635 40.1507 83.1637 40.1505C83.164 40.1503 83.164 40.1502 83.1642 40.15C83.165 40.1492 83.1639 40.1504 83.1647 40.1496C83.165 40.1492 83.1647 40.1495 83.1651 40.1491C83.1652 40.149 83.1652 40.149 83.1653 40.1489C83.1654 40.1488 83.1654 40.1488 83.1655 40.1487C83.1656 40.1486 83.1657 40.1485 83.1657 40.1485C83.1658 40.1484 83.1659 40.1483 83.1659 40.1483C83.1667 40.1475 83.1656 40.1486 83.1663 40.1479C83.1664 40.1478 83.1665 40.1477 83.1665 40.1477C83.1666 40.1476 83.1667 40.1475 83.1667 40.1475C83.1671 40.1471 83.1668 40.1474 83.1671 40.1471C83.1673 40.1469 83.1673 40.1469 83.1675 40.1467C83.1675 40.1467 83.1676 40.1466 83.1677 40.1466C83.1677 40.1465 83.1678 40.1464 83.1678 40.1464C83.1679 40.1463 83.1679 40.1463 83.168 40.1462C83.1681 40.1461 83.1681 40.1461 83.1682 40.146C83.1682 40.146 83.1683 40.1459 83.1683 40.1459C83.1684 40.1458 83.1684 40.1458 83.1685 40.1457C83.1686 40.1457 83.1686 40.1456 83.1687 40.1455C83.1687 40.1455 83.1688 40.1454 83.1688 40.1454C83.1689 40.1453 83.1689 40.1453 83.169 40.1452C83.169 40.1452 83.1691 40.1451 83.1691 40.1451C83.1692 40.145 83.1692 40.145 83.1693 40.1449C83.1693 40.1449 83.1694 40.1448 83.1694 40.1448C83.1697 40.1445 83.1695 40.1448 83.1697 40.1445C83.1698 40.1444 83.1699 40.1443 83.17 40.1442C83.1707 40.1435 83.1695 40.1447 83.1702 40.144C83.1705 40.1438 83.1703 40.1439 83.1705 40.1437C83.1705 40.1437 83.1706 40.1436 83.1706 40.1436C83.1706 40.1436 83.1707 40.1435 83.1707 40.1435C83.1708 40.1435 83.1708 40.1434 83.1708 40.1434C83.1709 40.1433 83.1709 40.1433 83.1709 40.1433C83.1713 40.1429 83.1708 40.1434 83.1711 40.1431C83.1712 40.143 83.1712 40.143 83.1712 40.143C83.1713 40.1429 83.1713 40.1429 83.1713 40.1429C83.1714 40.1428 83.1714 40.1428 83.1714 40.1428C83.1715 40.1427 83.1715 40.1427 83.1715 40.1427C83.1718 40.1425 83.1715 40.1427 83.1717 40.1425C83.1717 40.1425 83.1718 40.1425 83.1718 40.1424C83.1718 40.1424 83.1718 40.1424 83.1719 40.1423C83.1719 40.1423 83.1719 40.1423 83.1719 40.1423C83.172 40.1423 83.172 40.1422 83.172 40.1422C83.172 40.1422 83.1721 40.1422 83.1721 40.1421C83.1721 40.1421 83.1721 40.1421 83.1721 40.1421C83.1722 40.142 83.1722 40.142 83.1722 40.142C83.1722 40.142 83.1722 40.142 83.1723 40.1419C83.1724 40.1418 83.1723 40.1419 83.1724 40.1418C83.1724 40.1418 83.1724 40.1418 83.1724 40.1418C83.1724 40.1418 83.1725 40.1418 83.1725 40.1417C83.1725 40.1417 83.1725 40.1417 83.1725 40.1417C83.1725 40.1417 83.1725 40.1417 83.1726 40.1417C83.1726 40.1416 83.1726 40.1416 83.1726 40.1416C83.1727 40.1415 83.1726 40.1416 83.1727 40.1415C83.1727 40.1415 83.1727 40.1415 83.1727 40.1415C83.1727 40.1415 83.1727 40.1415 83.1727 40.1415C83.1727 40.1415 83.1727 40.1415 83.1727 40.1415C83.1727 40.1415 83.1728 40.1415 83.1728 40.1414C83.1728 40.1414 83.1728 40.1414 83.1728 40.1414C83.1728 40.1414 83.1728 40.1414 83.1728 40.1414C83.1728 40.1414 83.1728 40.1414 83.1728 40.1414C83.1728 40.1414 83.1728 40.1414 83.1728 40.1414C83.1728 38.7272 81.7586 38.7272 81.7586 38.7272C81.7586 38.7272 81.7586 38.7272 81.7586 38.7272C81.7586 38.7272 81.7586 38.7272 81.7585 38.7272C81.7585 38.7272 81.7585 38.7272 81.7585 38.7273C81.7585 38.7273 81.7585 38.7273 81.7585 38.7273C81.7585 38.7273 81.7585 38.7273 81.7585 38.7273C81.7584 38.7274 81.7585 38.7273 81.7584 38.7274C81.7584 38.7274 81.7584 38.7274 81.7584 38.7274C81.7584 38.7274 81.7584 38.7274 81.7583 38.7274C81.7583 38.7275 81.7583 38.7275 81.7583 38.7275C81.7583 38.7275 81.7583 38.7275 81.7583 38.7275C81.7582 38.7275 81.7582 38.7276 81.7582 38.7276C81.7582 38.7276 81.7582 38.7276 81.7582 38.7276C81.7581 38.7277 81.7582 38.7276 81.758 38.7277C81.758 38.7278 81.758 38.7278 81.7579 38.7279C81.7579 38.7279 81.7579 38.7279 81.7578 38.728C81.7578 38.728 81.7577 38.728 81.7577 38.7281C81.7577 38.7281 81.7577 38.7281 81.7576 38.7281C81.7576 38.7282 81.7575 38.7282 81.7575 38.7283C81.7574 38.7283 81.7574 38.7284 81.7574 38.7284C81.7574 38.7284 81.7573 38.7285 81.7573 38.7285C81.7573 38.7285 81.7572 38.7285 81.7572 38.7286C81.7572 38.7286 81.7571 38.7286 81.7571 38.7287C81.7571 38.7287 81.757 38.7287 81.757 38.7288C81.757 38.7288 81.7569 38.7288 81.7569 38.7289C81.7569 38.7289 81.7568 38.729 81.7568 38.729C81.7568 38.729 81.7567 38.7291 81.7567 38.7291C81.7566 38.7291 81.7565 38.7293 81.7564 38.7293C81.7563 38.7295 81.7564 38.7294 81.7562 38.7296C81.7562 38.7296 81.7561 38.7297 81.7561 38.7297C81.756 38.7297 81.756 38.7298 81.7559 38.7298C81.7555 38.7303 81.7562 38.7296 81.7557 38.7301C81.7556 38.7302 81.7556 38.7302 81.7555 38.7302C81.7555 38.7303 81.7554 38.7303 81.7554 38.7304C81.7553 38.7304 81.7553 38.7305 81.7552 38.7305C81.7552 38.7306 81.7551 38.7306 81.7551 38.7307C81.755 38.7307 81.755 38.7308 81.7549 38.7308C81.7549 38.7309 81.7548 38.731 81.7548 38.731C81.7547 38.7311 81.7547 38.7311 81.7546 38.7312C81.7546 38.7312 81.7545 38.7313 81.7544 38.7313C81.7544 38.7314 81.7543 38.7314 81.7543 38.7315C81.7542 38.7316 81.7542 38.7316 81.7541 38.7317C81.754 38.7318 81.7538 38.732 81.7537 38.732C81.7536 38.7322 81.7535 38.7322 81.7534 38.7324C81.753 38.7327 81.7533 38.7324 81.753 38.7328C81.7529 38.7328 81.7529 38.7329 81.7528 38.733C81.7527 38.733 81.7527 38.7331 81.7526 38.7332C81.7525 38.7332 81.7525 38.7333 81.7524 38.7334C81.7523 38.7335 81.7523 38.7335 81.7522 38.7336C81.752 38.7338 81.752 38.7338 81.7518 38.734C81.7512 38.7346 81.7519 38.7339 81.7513 38.7345C81.7508 38.735 81.7514 38.7344 81.7509 38.7349C81.7508 38.735 81.7505 38.7353 81.7504 38.7354C81.7503 38.7355 81.7502 38.7355 81.7502 38.7356C81.7501 38.7357 81.75 38.7358 81.7499 38.7359C81.7498 38.7359 81.7498 38.736 81.7497 38.7361C81.7496 38.7362 81.7495 38.7363 81.7494 38.7364C81.7493 38.7364 81.7493 38.7365 81.7492 38.7366C81.7491 38.7367 81.749 38.7368 81.7489 38.7369C81.7488 38.7369 81.7487 38.737 81.7487 38.7371C81.7486 38.7372 81.7485 38.7373 81.7484 38.7374C81.7483 38.7375 81.7482 38.7376 81.7481 38.7377C81.748 38.7377 81.7479 38.7378 81.7479 38.7379C81.7478 38.738 81.7477 38.7381 81.7476 38.7382C81.7475 38.7383 81.7474 38.7384 81.7473 38.7385C81.7468 38.739 81.7472 38.7385 81.7467 38.739C81.7466 38.7391 81.7465 38.7392 81.7464 38.7393C81.7463 38.7394 81.7462 38.7395 81.7462 38.7396C81.7461 38.7397 81.746 38.7398 81.7459 38.7399C81.7458 38.74 81.7457 38.7401 81.7456 38.7402C81.7447 38.741 81.7458 38.74 81.7449 38.7408C81.7448 38.7409 81.7447 38.741 81.7446 38.7411C81.7445 38.7413 81.7444 38.7414 81.7443 38.7415C81.7442 38.7416 81.7441 38.7417 81.744 38.7418C81.7439 38.7419 81.7438 38.742 81.7437 38.7421C81.7436 38.7422 81.7435 38.7423 81.7434 38.7424C81.7432 38.7425 81.7431 38.7426 81.743 38.7428C81.7429 38.7429 81.7428 38.743 81.7427 38.7431C81.7426 38.7432 81.7425 38.7433 81.7424 38.7434C81.7422 38.7436 81.7418 38.744 81.7417 38.7441C81.7416 38.7442 81.7414 38.7443 81.7413 38.7445C81.7412 38.7446 81.7411 38.7447 81.741 38.7448C81.7409 38.7449 81.7407 38.745 81.7406 38.7452C81.7405 38.7453 81.7404 38.7454 81.7403 38.7455C81.7401 38.7456 81.74 38.7458 81.7399 38.7459C81.7398 38.746 81.7397 38.7461 81.7395 38.7463C81.7394 38.7464 81.7393 38.7465 81.7392 38.7466C81.739 38.7467 81.7389 38.7469 81.7388 38.747C81.7387 38.7471 81.7385 38.7472 81.7384 38.7474C81.7383 38.7475 81.7382 38.7476 81.738 38.7478C81.7379 38.7479 81.7378 38.748 81.7376 38.7481C81.7375 38.7483 81.7374 38.7484 81.7373 38.7485C81.7369 38.7489 81.7368 38.749 81.7365 38.7493C81.7359 38.7498 81.7362 38.7496 81.7357 38.7501C81.7355 38.7503 81.7354 38.7504 81.7353 38.7505C81.7351 38.7507 81.735 38.7508 81.7348 38.7509C81.7347 38.7511 81.7346 38.7512 81.7344 38.7513C81.7343 38.7515 81.7342 38.7516 81.734 38.7518C81.7336 38.7521 81.7335 38.7522 81.7332 38.7526C81.733 38.7528 81.7329 38.7529 81.7327 38.753C81.7326 38.7532 81.7324 38.7533 81.7323 38.7535C81.7322 38.7536 81.732 38.7538 81.7319 38.7539C81.7317 38.7541 81.7316 38.7542 81.7314 38.7544C81.7313 38.7545 81.7311 38.7547 81.731 38.7548C81.7308 38.755 81.7307 38.7551 81.7305 38.7553C81.7293 38.7565 81.7308 38.7549 81.7296 38.7562C81.729 38.7568 81.7293 38.7565 81.7287 38.7571C81.7285 38.7572 81.7284 38.7574 81.7282 38.7576C81.7281 38.7577 81.7279 38.7579 81.7278 38.758C81.7276 38.7582 81.7274 38.7583 81.7273 38.7585C81.7271 38.7587 81.727 38.7588 81.7268 38.759C81.7266 38.7591 81.7265 38.7593 81.7263 38.7595C81.7262 38.7596 81.726 38.7598 81.7258 38.7599C81.7257 38.7601 81.7255 38.7603 81.7253 38.7604C81.7252 38.7606 81.725 38.7608 81.7248 38.7609C81.7247 38.7611 81.7245 38.7613 81.7243 38.7614C81.7242 38.7616 81.724 38.7618 81.7238 38.7619C81.7237 38.7621 81.7235 38.7623 81.7233 38.7624C81.7232 38.7626 81.723 38.7628 81.7228 38.763C81.721 38.7648 81.7236 38.7621 81.7218 38.764C81.7209 38.7649 81.7217 38.7641 81.7207 38.765C81.7206 38.7652 81.7204 38.7654 81.7202 38.7656C81.72 38.7657 81.7199 38.7659 81.7197 38.7661C81.7195 38.7663 81.7193 38.7665 81.7191 38.7666C81.719 38.7668 81.7188 38.767 81.7186 38.7672C81.7167 38.7691 81.7195 38.7663 81.7175 38.7683C81.7173 38.7685 81.7171 38.7686 81.717 38.7688C81.7168 38.769 81.7166 38.7692 81.7164 38.7694C81.7162 38.7696 81.716 38.7698 81.7158 38.7699C81.7157 38.7701 81.7155 38.7703 81.7153 38.7705C81.7151 38.7707 81.7149 38.7709 81.7147 38.7711C81.7145 38.7713 81.7143 38.7715 81.7141 38.7716C81.7139 38.7718 81.7137 38.772 81.7136 38.7722C81.7134 38.7724 81.7132 38.7726 81.713 38.7728C81.7128 38.773 81.7126 38.7732 81.7124 38.7734C81.7122 38.7736 81.712 38.7738 81.7118 38.774C81.711 38.7748 81.7114 38.7744 81.7106 38.7752C81.7104 38.7754 81.7102 38.7756 81.71 38.7758C81.7098 38.776 81.7096 38.7762 81.7094 38.7764C81.7092 38.7766 81.709 38.7768 81.7088 38.777C81.7086 38.7772 81.7084 38.7774 81.7082 38.7776C81.708 38.7778 81.7078 38.778 81.7076 38.7782C81.7074 38.7784 81.7072 38.7786 81.7069 38.7788C81.7067 38.779 81.7065 38.7792 81.7063 38.7795C81.7061 38.7797 81.7059 38.7799 81.7057 38.7801C81.7055 38.7803 81.7053 38.7805 81.7051 38.7807C81.7049 38.7809 81.7046 38.7811 81.7044 38.7814C81.7021 38.7836 81.7054 38.7803 81.7031 38.7826C81.7023 38.7835 81.7027 38.7831 81.7018 38.7839C81.7016 38.7842 81.7014 38.7844 81.7012 38.7846C81.701 38.7848 81.7007 38.785 81.7005 38.7853C81.7003 38.7855 81.7001 38.7857 81.6999 38.7859C81.6996 38.7861 81.6994 38.7864 81.6992 38.7866C81.698 38.7878 81.699 38.7867 81.6978 38.7879C81.6976 38.7882 81.6974 38.7884 81.6972 38.7886C81.6969 38.7888 81.6967 38.7891 81.6965 38.7893C81.6962 38.7895 81.696 38.7898 81.6958 38.79C81.6956 38.7902 81.6953 38.7905 81.6951 38.7907C81.6949 38.7909 81.6946 38.7912 81.6944 38.7914C81.6942 38.7916 81.6939 38.7919 81.6937 38.7921C81.6918 38.794 81.6942 38.7916 81.6923 38.7935C81.6907 38.7951 81.6924 38.7933 81.6908 38.7949C81.6905 38.7953 81.6897 38.7961 81.6894 38.7964C81.6892 38.7966 81.6889 38.7969 81.6887 38.7971C81.6884 38.7974 81.6882 38.7976 81.6879 38.7978C81.6873 38.7985 81.6871 38.7987 81.6865 38.7993C81.6862 38.7996 81.686 38.7998 81.6857 38.8001C81.6855 38.8003 81.6852 38.8006 81.685 38.8008C81.6847 38.8011 81.6845 38.8013 81.6842 38.8016C81.6839 38.8018 81.6837 38.8021 81.6834 38.8023C81.6832 38.8026 81.6829 38.8028 81.6827 38.8031C81.6824 38.8034 81.6822 38.8036 81.6819 38.8039C81.6817 38.8041 81.6814 38.8044 81.6811 38.8046C81.6809 38.8049 81.6806 38.8052 81.6804 38.8054C81.68 38.8058 81.6791 38.8066 81.6788 38.807C81.6785 38.8072 81.6783 38.8075 81.678 38.8078C81.6777 38.808 81.6775 38.8083 81.6772 38.8086C81.6765 38.8093 81.6763 38.8095 81.6756 38.8102C81.6735 38.8123 81.6762 38.8096 81.674 38.8118C81.6737 38.812 81.6735 38.8123 81.6732 38.8126C81.6729 38.8129 81.6726 38.8131 81.6724 38.8134C81.6721 38.8137 81.6718 38.814 81.6715 38.8142C81.6713 38.8145 81.671 38.8148 81.6707 38.8151C81.6704 38.8153 81.6702 38.8156 81.6699 38.8159C81.6696 38.8162 81.6693 38.8164 81.6691 38.8167C81.6688 38.817 81.6685 38.8173 81.6682 38.8176C81.6679 38.8178 81.6677 38.8181 81.6674 38.8184C81.667 38.8188 81.6661 38.8197 81.6657 38.8201C81.6654 38.8204 81.6651 38.8207 81.6648 38.821C81.6645 38.8212 81.6642 38.8215 81.664 38.8218C81.6637 38.8221 81.6634 38.8224 81.6631 38.8227C81.6628 38.823 81.6625 38.8233 81.6622 38.8236C81.6619 38.8238 81.6616 38.8241 81.6614 38.8244C81.6611 38.8247 81.6608 38.825 81.6605 38.8253C81.6602 38.8256 81.6599 38.8259 81.6596 38.8262C81.6593 38.8265 81.659 38.8268 81.6587 38.8271C81.6584 38.8274 81.6581 38.8277 81.6578 38.828C81.6575 38.8283 81.6572 38.8286 81.6569 38.8289C81.6566 38.8292 81.6563 38.8295 81.656 38.8298C81.6557 38.8301 81.6554 38.8304 81.6551 38.8307C81.6543 38.8315 81.6541 38.8317 81.6533 38.8325C81.6521 38.8337 81.6527 38.8331 81.6515 38.8343C81.6511 38.8347 81.65 38.8358 81.6496 38.8362C81.6488 38.837 81.6486 38.8372 81.6477 38.838C81.6469 38.8389 81.6467 38.8391 81.6459 38.8399C81.6455 38.8402 81.6452 38.8406 81.6449 38.8409C81.6446 38.8412 81.6443 38.8415 81.6439 38.8418C81.6436 38.8422 81.6433 38.8425 81.643 38.8428C81.6427 38.8431 81.6423 38.8434 81.642 38.8438C81.6417 38.8441 81.6414 38.8444 81.6411 38.8447C81.6407 38.845 81.6404 38.8454 81.6401 38.8457C81.6375 38.8483 81.6407 38.845 81.6381 38.8477C81.6359 38.8498 81.6383 38.8474 81.6361 38.8496C81.6348 38.851 81.6355 38.8503 81.6342 38.8516C81.6338 38.852 81.6335 38.8523 81.6332 38.8526C81.6328 38.853 81.6325 38.8533 81.6321 38.8536C81.6312 38.8545 81.631 38.8548 81.6301 38.8557C81.6298 38.856 81.6294 38.8563 81.6291 38.8567C81.6288 38.857 81.6284 38.8574 81.6281 38.8577C81.6277 38.8581 81.6274 38.8584 81.627 38.8587C81.6267 38.8591 81.6263 38.8594 81.626 38.8598C81.6257 38.8601 81.6253 38.8605 81.625 38.8608C81.6246 38.8612 81.6243 38.8615 81.6239 38.8619C81.6236 38.8622 81.6232 38.8626 81.6229 38.8629C81.6225 38.8633 81.6222 38.8636 81.6218 38.864C81.6199 38.8658 81.6216 38.8642 81.6197 38.8661C81.6194 38.8664 81.619 38.8668 81.6186 38.8671C81.6183 38.8675 81.6179 38.8679 81.6176 38.8682C81.6166 38.8692 81.6164 38.8694 81.6154 38.8704C81.6125 38.8733 81.6162 38.8696 81.6132 38.8725C81.6129 38.8729 81.6125 38.8733 81.6122 38.8736C81.6118 38.874 81.6114 38.8744 81.6111 38.8747C81.6107 38.8751 81.6103 38.8755 81.61 38.8758C81.6096 38.8762 81.6092 38.8766 81.6088 38.8769C81.6085 38.8773 81.6081 38.8777 81.6077 38.878C81.6074 38.8784 81.607 38.8788 81.6066 38.8792C81.6062 38.8795 81.6059 38.8799 81.6055 38.8803C81.6051 38.8807 81.6048 38.881 81.6044 38.8814C81.6039 38.8819 81.6026 38.8832 81.6021 38.8837C81.6016 38.8842 81.6003 38.8854 81.5998 38.8859C81.5995 38.8863 81.5991 38.8867 81.5987 38.8871C81.5983 38.8875 81.5979 38.8879 81.5975 38.8882C81.5955 38.8903 81.5973 38.8885 81.5952 38.8906C81.5948 38.8909 81.5944 38.8913 81.5941 38.8917C81.5937 38.8921 81.5933 38.8925 81.5929 38.8929L83.0071 40.3071C83.0075 40.3067 83.0079 40.3063 83.0083 40.3059C83.0087 40.3055 83.009 40.3052 83.0094 40.3048C83.0098 40.3044 83.0102 40.304 83.0106 40.3036C83.011 40.3032 83.0114 40.3028 83.0118 40.3025C83.0121 40.3021 83.0125 40.3017 83.0129 40.3013C83.0133 40.3009 83.0137 40.3005 83.0141 40.3002C83.0144 40.2998 83.0148 40.2994 83.0152 40.299C83.0156 40.2986 83.016 40.2983 83.0163 40.2979C83.0167 40.2975 83.0171 40.2971 83.0175 40.2967C83.0178 40.2964 83.0182 40.296 83.0186 40.2956C83.0226 40.2916 83.0168 40.2974 83.0208 40.2934C83.0248 40.2894 83.0191 40.2951 83.0231 40.2911C83.0234 40.2908 83.0238 40.2904 83.0242 40.29C83.0245 40.2897 83.0249 40.2893 83.0253 40.2889C83.0256 40.2886 83.026 40.2882 83.0264 40.2878C83.0267 40.2875 83.0271 40.2871 83.0275 40.2867C83.0278 40.2864 83.0282 40.286 83.0285 40.2857C83.0289 40.2853 83.0293 40.2849 83.0296 40.2846C83.0354 40.2789 83.0261 40.2881 83.0318 40.2824C83.0337 40.2805 83.032 40.2822 83.0339 40.2803C83.0349 40.2793 83.0351 40.2791 83.036 40.2782C83.0364 40.2778 83.0367 40.2775 83.0371 40.2771C83.0374 40.2768 83.0378 40.2764 83.0381 40.2761C83.0418 40.2724 83.0365 40.2777 83.0402 40.274C83.0406 40.2736 83.0409 40.2733 83.0413 40.273C83.0416 40.2726 83.0419 40.2723 83.0423 40.2719C83.0426 40.2716 83.043 40.2712 83.0433 40.2709C83.0436 40.2706 83.044 40.2702 83.0443 40.2699C83.0447 40.2695 83.045 40.2692 83.0453 40.2689C83.0457 40.2685 83.046 40.2682 83.0464 40.2679C83.0481 40.2661 83.0466 40.2676 83.0484 40.2658C83.0487 40.2655 83.049 40.2652 83.0494 40.2648C83.0497 40.2645 83.05 40.2642 83.0504 40.2638C83.0507 40.2635 83.051 40.2632 83.0514 40.2629C83.0517 40.2625 83.052 40.2622 83.0523 40.2619C83.0558 40.2584 83.0508 40.2634 83.0543 40.2599C83.056 40.2582 83.0545 40.2597 83.0562 40.258C83.0566 40.2576 83.0569 40.2573 83.0572 40.257C83.0575 40.2567 83.0578 40.2564 83.0582 40.256C83.0585 40.2557 83.0588 40.2554 83.0591 40.2551C83.0594 40.2548 83.0597 40.2545 83.0601 40.2541C83.0618 40.2525 83.0603 40.2539 83.062 40.2523C83.0623 40.2519 83.0626 40.2516 83.0629 40.2513C83.0632 40.251 83.0635 40.2507 83.0638 40.2504C83.0641 40.2501 83.0644 40.2498 83.0648 40.2495C83.0651 40.2491 83.0654 40.2488 83.0657 40.2485C83.066 40.2482 83.0663 40.2479 83.0666 40.2476C83.0669 40.2473 83.0672 40.247 83.0675 40.2467C83.0678 40.2464 83.0681 40.2461 83.0684 40.2458C83.0687 40.2455 83.069 40.2452 83.0693 40.2449C83.0709 40.2433 83.0695 40.2447 83.0711 40.2431C83.0714 40.2428 83.0717 40.2425 83.072 40.2422C83.0723 40.2419 83.0726 40.2416 83.0729 40.2413C83.0732 40.241 83.0735 40.2407 83.0738 40.2404C83.0741 40.2401 83.0744 40.2398 83.0747 40.2395C83.0763 40.238 83.0749 40.2393 83.0764 40.2378C83.0767 40.2375 83.077 40.2372 83.0773 40.2369C83.0776 40.2366 83.0779 40.2363 83.0782 40.236C83.0805 40.2337 83.0776 40.2366 83.0799 40.2343C83.0802 40.234 83.0805 40.2337 83.0807 40.2335C83.081 40.2332 83.0813 40.2329 83.0816 40.2326C83.0819 40.2323 83.0822 40.2321 83.0824 40.2318C83.0827 40.2315 83.083 40.2312 83.0833 40.2309C83.0862 40.228 83.082 40.2322 83.0849 40.2293C83.0852 40.229 83.0855 40.2287 83.0858 40.2284C83.086 40.2282 83.0863 40.2279 83.0866 40.2276C83.0869 40.2273 83.0871 40.2271 83.0874 40.2268C83.0877 40.2265 83.0879 40.2263 83.0882 40.226C83.0885 40.2257 83.0888 40.2255 83.089 40.2252C83.0893 40.2249 83.0896 40.2246 83.0898 40.2244C83.0901 40.2241 83.0904 40.2238 83.0906 40.2236C83.0909 40.2233 83.0912 40.223 83.0914 40.2228C83.0928 40.2214 83.0916 40.2226 83.093 40.2212C83.0933 40.2209 83.0935 40.2207 83.0938 40.2204C83.0941 40.2202 83.0943 40.2199 83.0946 40.2196C83.0948 40.2194 83.0951 40.2191 83.0953 40.2189C83.0956 40.2186 83.0959 40.2183 83.0961 40.2181C83.0975 40.2167 83.0963 40.2179 83.0977 40.2166C83.0979 40.2163 83.0982 40.216 83.0984 40.2158C83.0987 40.2155 83.0989 40.2153 83.0992 40.215C83.0994 40.2148 83.0997 40.2145 83.0999 40.2143C83.1002 40.214 83.1004 40.2138 83.1007 40.2135C83.1009 40.2133 83.1012 40.213 83.1014 40.2128C83.1017 40.2126 83.1019 40.2123 83.1021 40.2121C83.1034 40.2108 83.1023 40.2119 83.1036 40.2106C83.1043 40.21 83.1044 40.2098 83.1051 40.2091C83.1053 40.2089 83.1055 40.2087 83.1058 40.2084C83.106 40.2082 83.1063 40.208 83.1065 40.2077C83.109 40.2052 83.1054 40.2088 83.1079 40.2063C83.1081 40.2061 83.1084 40.2058 83.1086 40.2056C83.1088 40.2054 83.1091 40.2051 83.1093 40.2049C83.1095 40.2047 83.1098 40.2044 83.11 40.2042C83.1102 40.204 83.1105 40.2037 83.1107 40.2035C83.1109 40.2033 83.1111 40.2031 83.1114 40.2028C83.1116 40.2026 83.1118 40.2024 83.1121 40.2022C83.1133 40.2009 83.1122 40.202 83.1134 40.2008C83.1136 40.2006 83.1138 40.2004 83.1141 40.2001C83.1143 40.1999 83.1145 40.1997 83.1147 40.1995C83.1153 40.1989 83.1155 40.1987 83.1161 40.1982C83.1166 40.1976 83.1168 40.1974 83.1174 40.1969C83.1176 40.1966 83.1178 40.1964 83.118 40.1962C83.1182 40.196 83.1184 40.1958 83.1186 40.1956C83.1198 40.1944 83.1188 40.1954 83.1199 40.1943C83.1201 40.1941 83.1203 40.1939 83.1205 40.1937C83.1207 40.1935 83.121 40.1933 83.1212 40.193C83.1214 40.1928 83.1216 40.1926 83.1218 40.1924C83.122 40.1922 83.1222 40.192 83.1224 40.1918C83.1226 40.1916 83.1228 40.1914 83.123 40.1912C83.1232 40.191 83.1234 40.1908 83.1236 40.1906C83.1247 40.1895 83.1238 40.1904 83.1248 40.1894C83.1254 40.1888 83.1255 40.1887 83.126 40.1882C83.1262 40.188 83.1264 40.1878 83.1266 40.1876C83.1268 40.1874 83.127 40.1872 83.1272 40.187C83.1274 40.1868 83.1276 40.1866 83.1278 40.1864C83.128 40.1862 83.1282 40.1861 83.1283 40.1859C83.1285 40.1857 83.1287 40.1855 83.1289 40.1853C83.1291 40.1851 83.1293 40.1849 83.1295 40.1847C83.1297 40.1845 83.1299 40.1843 83.1301 40.1842C83.1302 40.184 83.1304 40.1838 83.1306 40.1836C83.1308 40.1834 83.131 40.1832 83.1312 40.183C83.1314 40.1829 83.1315 40.1827 83.1317 40.1825C83.1319 40.1823 83.1321 40.1821 83.1323 40.1819C83.1325 40.1818 83.1326 40.1816 83.1328 40.1814C83.1357 40.1785 83.131 40.1832 83.1339 40.1803C83.1349 40.1794 83.134 40.1802 83.135 40.1792C83.1354 40.1788 83.1355 40.1787 83.136 40.1782C83.1362 40.178 83.1364 40.1779 83.1365 40.1777C83.1367 40.1775 83.1369 40.1773 83.137 40.1772C83.1379 40.1763 83.1372 40.177 83.1381 40.1761C83.1382 40.176 83.1384 40.1758 83.1386 40.1756C83.1387 40.1755 83.1389 40.1753 83.1391 40.1751C83.1392 40.175 83.1394 40.1748 83.1396 40.1747C83.1397 40.1745 83.1399 40.1743 83.14 40.1742C83.1409 40.1733 83.1402 40.1741 83.141 40.1732C83.1419 40.1723 83.1411 40.1731 83.142 40.1722C83.1424 40.1718 83.1425 40.1717 83.1429 40.1713C83.1431 40.1711 83.1432 40.171 83.1434 40.1708C83.1435 40.1707 83.1437 40.1705 83.1438 40.1704C83.144 40.1702 83.1441 40.1701 83.1443 40.1699C83.1444 40.1698 83.1446 40.1696 83.1447 40.1695C83.1455 40.1687 83.1448 40.1694 83.1456 40.1686C83.1458 40.1684 83.1459 40.1683 83.1461 40.1681C83.1462 40.168 83.1464 40.1678 83.1465 40.1677C83.1467 40.1675 83.1468 40.1674 83.1469 40.1673C83.1471 40.1671 83.1472 40.167 83.1474 40.1668C83.1475 40.1667 83.1477 40.1665 83.1478 40.1664C83.1479 40.1663 83.1481 40.1661 83.1482 40.166C83.1484 40.1658 83.1485 40.1657 83.1486 40.1656C83.1488 40.1654 83.1489 40.1653 83.1491 40.1651C83.1494 40.1648 83.1495 40.1647 83.1499 40.1643C83.1506 40.1636 83.15 40.1642 83.1507 40.1635C83.1508 40.1634 83.1509 40.1633 83.1511 40.1631C83.1512 40.163 83.1513 40.1629 83.1515 40.1627C83.1528 40.1614 83.1509 40.1633 83.1522 40.162C83.1524 40.1618 83.1525 40.1617 83.1526 40.1616C83.1527 40.1615 83.1529 40.1613 83.153 40.1612C83.1531 40.1611 83.1532 40.161 83.1534 40.1608C83.1535 40.1607 83.1536 40.1606 83.1537 40.1605C83.1539 40.1603 83.154 40.1602 83.1541 40.1601C83.1542 40.16 83.1544 40.1599 83.1545 40.1597C83.1551 40.1591 83.1546 40.1597 83.1552 40.159C83.1561 40.1581 83.1549 40.1593 83.1559 40.1583C83.156 40.1582 83.1561 40.1581 83.1562 40.158C83.1563 40.1579 83.1565 40.1578 83.1566 40.1576C83.1578 40.1564 83.156 40.1582 83.1572 40.157C83.1584 40.1558 83.1567 40.1575 83.1579 40.1563C83.158 40.1562 83.1581 40.1561 83.1582 40.156C83.1583 40.1559 83.1584 40.1558 83.1585 40.1557C83.1586 40.1556 83.1587 40.1555 83.1588 40.1554C83.159 40.1553 83.1591 40.1552 83.1592 40.155C83.1593 40.1549 83.1594 40.1548 83.1595 40.1547C83.1596 40.1546 83.1597 40.1545 83.1598 40.1544C83.1603 40.1539 83.1598 40.1544 83.1604 40.1538C83.1612 40.1531 83.1602 40.154 83.1609 40.1533C83.1612 40.153 83.1613 40.1529 83.1615 40.1527C83.1616 40.1526 83.1617 40.1525 83.1618 40.1524C83.1619 40.1523 83.162 40.1522 83.1621 40.1521C83.1622 40.152 83.1622 40.152 83.1623 40.1519C83.1624 40.1518 83.1625 40.1517 83.1626 40.1516C83.1627 40.1515 83.1628 40.1514 83.1629 40.1513C83.163 40.1512 83.163 40.1512 83.1631 40.1511C83.1632 40.151 83.1633 40.1509 83.1634 40.1508C83.1635 40.1507 83.1636 40.1507 83.1636 40.1506C83.1637 40.1505 83.1638 40.1504 83.1639 40.1503C83.164 40.1502 83.1641 40.1502 83.1641 40.1501C83.1642 40.15 83.1643 40.1499 83.1644 40.1498C83.1645 40.1497 83.1645 40.1497 83.1646 40.1496C83.1647 40.1495 83.1648 40.1494 83.1649 40.1494C83.1649 40.1493 83.165 40.1492 83.1651 40.1491C83.1652 40.149 83.1652 40.149 83.1653 40.1489C83.1654 40.1488 83.1655 40.1487 83.1655 40.1487C83.1663 40.1479 83.1652 40.149 83.166 40.1482C83.1667 40.1475 83.1657 40.1485 83.1664 40.1478C83.1665 40.1477 83.1665 40.1477 83.1666 40.1476C83.1667 40.1475 83.1667 40.1475 83.1668 40.1474C83.1669 40.1473 83.1669 40.1473 83.167 40.1472C83.1671 40.1471 83.1671 40.1471 83.1672 40.147C83.1673 40.1469 83.1673 40.1469 83.1674 40.1468C83.1675 40.1467 83.1675 40.1467 83.1676 40.1466C83.1677 40.1466 83.1677 40.1465 83.1678 40.1464C83.1678 40.1464 83.1679 40.1463 83.168 40.1462C83.168 40.1462 83.1681 40.1461 83.1681 40.1461C83.1682 40.146 83.1683 40.1459 83.1683 40.1459C83.1686 40.1456 83.1684 40.1458 83.1687 40.1455C83.1687 40.1455 83.1688 40.1454 83.1688 40.1454C83.1689 40.1453 83.1689 40.1453 83.169 40.1452C83.169 40.1452 83.1691 40.1451 83.1691 40.1451C83.1692 40.145 83.1692 40.145 83.1693 40.1449C83.1694 40.1449 83.1694 40.1448 83.1695 40.1448C83.1695 40.1447 83.1696 40.1447 83.1696 40.1446C83.1696 40.1446 83.1697 40.1445 83.1697 40.1445C83.1698 40.1444 83.1698 40.1444 83.1699 40.1443C83.1699 40.1443 83.17 40.1442 83.17 40.1442C83.1701 40.1441 83.1701 40.1441 83.1702 40.144C83.1704 40.1438 83.1702 40.144 83.1704 40.1438C83.1705 40.1437 83.1706 40.1437 83.1707 40.1435C83.1707 40.1435 83.1707 40.1435 83.1708 40.1434C83.1708 40.1434 83.1709 40.1434 83.1709 40.1433C83.1711 40.1431 83.1709 40.1433 83.1711 40.1431C83.1713 40.1429 83.1711 40.1431 83.1713 40.1429C83.1713 40.1429 83.1714 40.1428 83.1714 40.1428C83.1714 40.1428 83.1715 40.1427 83.1715 40.1427C83.1715 40.1427 83.1716 40.1426 83.1716 40.1426C83.1716 40.1426 83.1717 40.1426 83.1717 40.1425C83.1717 40.1425 83.1717 40.1425 83.1718 40.1424C83.1718 40.1424 83.1718 40.1424 83.1718 40.1424C83.1722 40.142 83.1716 40.1426 83.172 40.1422C83.1721 40.1421 83.172 40.1422 83.1721 40.1421C83.1722 40.142 83.1722 40.1421 83.1723 40.1419C83.1723 40.1419 83.1723 40.1419 83.1723 40.1419C83.1723 40.1419 83.1724 40.1419 83.1724 40.1418C83.1725 40.1417 83.1724 40.1418 83.1725 40.1417C83.1725 40.1417 83.1725 40.1417 83.1725 40.1417C83.1725 40.1417 83.1725 40.1417 83.1726 40.1417C83.1726 40.1416 83.1726 40.1416 83.1726 40.1416C83.1726 40.1416 83.1726 40.1416 83.1726 40.1416C83.1726 40.1416 83.1726 40.1416 83.1727 40.1416C83.1727 40.1415 83.1727 40.1415 83.1727 40.1415C83.1727 40.1415 83.1727 40.1415 83.1727 40.1415C83.1727 40.1415 83.1727 40.1415 83.1727 40.1415C83.1727 40.1415 83.1727 40.1415 83.1728 40.1414C83.1728 40.1414 83.1728 40.1414 83.1728 40.1414C83.1728 40.1414 83.1728 40.1414 83.1728 40.1414C83.1728 40.1414 83.1728 40.1414 83.1728 40.1414C83.1728 40.1414 81.7586 40.1414 81.7586 38.7272C81.7586 38.7272 81.7586 38.7272 81.7586 38.7272C81.7586 38.7272 81.7586 38.7272 81.7586 38.7272C81.7586 38.7272 81.7585 38.7272 81.7585 38.7272C81.7585 38.7272 81.7585 38.7272 81.7585 38.7272C81.7585 38.7273 81.7585 38.7273 81.7585 38.7273C81.7585 38.7273 81.7585 38.7273 81.7585 38.7273C81.7585 38.7273 81.7584 38.7273 81.7584 38.7273C81.7584 38.7274 81.7584 38.7274 81.7584 38.7274C81.7584 38.7274 81.7584 38.7274 81.7584 38.7274C81.7584 38.7274 81.7584 38.7274 81.7583 38.7274C81.7582 38.7275 81.7584 38.7274 81.7583 38.7275C81.7582 38.7275 81.7582 38.7276 81.7582 38.7276C81.7582 38.7276 81.7582 38.7276 81.7582 38.7276C81.7581 38.7276 81.7581 38.7277 81.7581 38.7277C81.7581 38.7277 81.7581 38.7277 81.758 38.7277C81.758 38.7278 81.758 38.7278 81.758 38.7278C81.758 38.7278 81.7579 38.7278 81.7579 38.7279C81.7579 38.7279 81.7579 38.7279 81.7579 38.7279C81.7578 38.7279 81.7578 38.728 81.7578 38.728C81.7577 38.7281 81.7578 38.728 81.7576 38.7281C81.7576 38.7282 81.7576 38.7282 81.7576 38.7282C81.7575 38.7282 81.7575 38.7283 81.7575 38.7283C81.7575 38.7283 81.7574 38.7284 81.7574 38.7284C81.7574 38.7284 81.7573 38.7284 81.7573 38.7285C81.7573 38.7285 81.7572 38.7286 81.7571 38.7287C81.7569 38.7289 81.7572 38.7286 81.7569 38.7288C81.7569 38.7289 81.7569 38.7289 81.7568 38.729C81.7568 38.729 81.7568 38.729 81.7567 38.7291C81.7567 38.7291 81.7566 38.7291 81.7566 38.7292C81.7566 38.7292 81.7565 38.7292 81.7565 38.7293C81.7565 38.7293 81.7564 38.7294 81.7564 38.7294C81.7563 38.7294 81.7563 38.7295 81.7563 38.7295C81.7562 38.7296 81.7561 38.7296 81.756 38.7298C81.7559 38.7299 81.7559 38.7299 81.7558 38.73C81.7556 38.7301 81.7556 38.7302 81.7555 38.7303C81.7553 38.7305 81.7554 38.7304 81.7552 38.7306C81.7552 38.7306 81.7551 38.7307 81.7551 38.7307C81.755 38.7308 81.755 38.7308 81.7549 38.7309C81.7549 38.7309 81.7548 38.731 81.7548 38.731C81.7547 38.7311 81.7547 38.7311 81.7546 38.7312C81.7546 38.7312 81.7545 38.7313 81.7544 38.7313C81.7544 38.7314 81.7543 38.7314 81.7543 38.7315C81.7542 38.7315 81.7542 38.7316 81.7541 38.7317C81.7541 38.7317 81.754 38.7318 81.754 38.7318C81.7537 38.7321 81.7539 38.7319 81.7536 38.7322C81.7536 38.7322 81.7535 38.7323 81.7534 38.7323C81.7534 38.7324 81.7533 38.7325 81.7533 38.7325C81.7532 38.7326 81.753 38.7328 81.7529 38.7329C81.7528 38.733 81.7528 38.733 81.7527 38.7331C81.7526 38.7331 81.7526 38.7332 81.7525 38.7333C81.7518 38.734 81.7528 38.733 81.7521 38.7337C81.7521 38.7337 81.752 38.7338 81.7519 38.7339C81.7519 38.7339 81.7518 38.734 81.7517 38.7341C81.7517 38.7341 81.7516 38.7342 81.7515 38.7343C81.7514 38.7343 81.7514 38.7344 81.7513 38.7345C81.7512 38.7345 81.7512 38.7346 81.7511 38.7347C81.751 38.7348 81.751 38.7348 81.7509 38.7349C81.7508 38.735 81.7507 38.735 81.7507 38.7351C81.7506 38.7352 81.7505 38.7353 81.7504 38.7353C81.7504 38.7354 81.7503 38.7355 81.7502 38.7356C81.7501 38.7356 81.7501 38.7357 81.75 38.7358C81.7499 38.7359 81.7498 38.7359 81.7498 38.736C81.7497 38.7361 81.7496 38.7362 81.7495 38.7362C81.7493 38.7365 81.7493 38.7365 81.7491 38.7367C81.749 38.7368 81.7489 38.7369 81.7488 38.737C81.7487 38.737 81.7487 38.7371 81.7486 38.7372C81.7485 38.7373 81.7484 38.7374 81.7483 38.7375C81.7482 38.7375 81.7482 38.7376 81.7481 38.7377C81.748 38.7378 81.7479 38.7379 81.7478 38.738C81.7477 38.738 81.7477 38.7381 81.7476 38.7382C81.7475 38.7383 81.7474 38.7384 81.7473 38.7385C81.7472 38.7386 81.7471 38.7386 81.7471 38.7387C81.747 38.7388 81.7469 38.7389 81.7468 38.739C81.7467 38.7391 81.7466 38.7392 81.7465 38.7393C81.7464 38.7393 81.7463 38.7394 81.7463 38.7395C81.7462 38.7396 81.7461 38.7397 81.746 38.7398C81.7457 38.74 81.7457 38.7401 81.7454 38.7403C81.7451 38.7407 81.7452 38.7405 81.7449 38.7409C81.7436 38.7422 81.7456 38.7402 81.7443 38.7415C81.7442 38.7416 81.7441 38.7417 81.744 38.7418C81.7439 38.7419 81.7438 38.742 81.7437 38.7421C81.7436 38.7422 81.7435 38.7423 81.7434 38.7424C81.7433 38.7425 81.7432 38.7426 81.7431 38.7427C81.743 38.7428 81.7429 38.7429 81.7428 38.743C81.7427 38.7431 81.7426 38.7432 81.7425 38.7433C81.7424 38.7434 81.7423 38.7435 81.7422 38.7436C81.7421 38.7437 81.742 38.7438 81.7419 38.7439C81.7416 38.7442 81.7415 38.7442 81.7412 38.7445C81.7405 38.7452 81.7413 38.7445 81.7406 38.7452C81.7405 38.7453 81.7401 38.7457 81.74 38.7458C81.7398 38.7459 81.7397 38.746 81.7396 38.7462C81.7395 38.7463 81.7394 38.7464 81.7393 38.7465C81.7392 38.7466 81.7391 38.7467 81.739 38.7468C81.7388 38.7469 81.7387 38.7471 81.7386 38.7472C81.7385 38.7473 81.7384 38.7474 81.7383 38.7475C81.7382 38.7476 81.738 38.7477 81.7379 38.7479C81.7378 38.748 81.7377 38.7481 81.7376 38.7482C81.7375 38.7483 81.7374 38.7484 81.7372 38.7485C81.7363 38.7495 81.7375 38.7483 81.7365 38.7493C81.7364 38.7494 81.7363 38.7495 81.7362 38.7496C81.736 38.7497 81.7359 38.7499 81.7358 38.75C81.7356 38.7501 81.7352 38.7505 81.7351 38.7507C81.7348 38.751 81.7347 38.7511 81.7343 38.7514C81.7342 38.7516 81.7341 38.7517 81.734 38.7518C81.7338 38.7519 81.7337 38.7521 81.7336 38.7522C81.7329 38.7529 81.7335 38.7523 81.7328 38.753C81.7327 38.7531 81.7326 38.7532 81.7324 38.7533C81.7323 38.7535 81.7322 38.7536 81.7321 38.7537C81.7319 38.7539 81.7318 38.754 81.7317 38.7541C81.7315 38.7542 81.7314 38.7544 81.7313 38.7545C81.7311 38.7546 81.731 38.7548 81.7309 38.7549C81.7307 38.755 81.7306 38.7552 81.7305 38.7553C81.7303 38.7554 81.7302 38.7556 81.7301 38.7557C81.7299 38.7558 81.7298 38.756 81.7297 38.7561C81.7295 38.7562 81.7294 38.7564 81.7293 38.7565C81.7291 38.7566 81.729 38.7568 81.7289 38.7569C81.7283 38.7575 81.7286 38.7572 81.728 38.7577C81.7277 38.7581 81.7276 38.7582 81.7272 38.7586C81.7271 38.7587 81.7269 38.7589 81.7268 38.759C81.7266 38.7591 81.7265 38.7593 81.7264 38.7594C81.7262 38.7596 81.7261 38.7597 81.7259 38.7598C81.7258 38.76 81.7256 38.7601 81.7255 38.7603C81.7254 38.7604 81.7252 38.7606 81.7251 38.7607C81.7249 38.7609 81.7248 38.761 81.7246 38.7611C81.7231 38.7627 81.7253 38.7605 81.7238 38.762C81.7236 38.7622 81.7235 38.7623 81.7233 38.7625C81.7232 38.7626 81.723 38.7628 81.7229 38.7629C81.7229 38.7629 81.722 38.7638 81.722 38.7638C81.7218 38.764 81.7217 38.7641 81.7215 38.7643C81.7214 38.7644 81.7212 38.7646 81.7211 38.7647C81.7211 38.7647 81.7202 38.7656 81.7202 38.7656C81.7197 38.766 81.7196 38.7661 81.7192 38.7666C81.7191 38.7667 81.7189 38.7669 81.7188 38.767C81.7186 38.7672 81.7184 38.7673 81.7183 38.7675C81.7181 38.7676 81.718 38.7678 81.7178 38.768C81.7177 38.7681 81.7175 38.7683 81.7173 38.7684C81.7169 38.7689 81.7168 38.769 81.7164 38.7694C81.7155 38.7703 81.7163 38.7695 81.7154 38.7704C81.7148 38.771 81.7151 38.7707 81.7144 38.7713C81.7138 38.772 81.7141 38.7717 81.7135 38.7723C81.7135 38.7723 81.7125 38.7733 81.7125 38.7733C81.7123 38.7735 81.7121 38.7737 81.712 38.7738C81.7118 38.774 81.7116 38.7742 81.7115 38.7743C81.7113 38.7745 81.7111 38.7747 81.7109 38.7748C81.7108 38.775 81.7106 38.7752 81.7104 38.7753C81.7103 38.7755 81.7101 38.7757 81.7099 38.7759C81.7098 38.776 81.7096 38.7762 81.7094 38.7764C81.7092 38.7765 81.7091 38.7767 81.7089 38.7769C81.7087 38.7771 81.7086 38.7772 81.7084 38.7774C81.7082 38.7776 81.708 38.7777 81.7079 38.7779C81.7077 38.7781 81.7075 38.7783 81.7073 38.7784C81.7071 38.7787 81.7065 38.7793 81.7063 38.7795C81.706 38.7797 81.7055 38.7803 81.7052 38.7806C81.7038 38.782 81.7056 38.7802 81.7041 38.7816C81.7037 38.7821 81.7035 38.7822 81.7031 38.7827C81.7029 38.7829 81.7027 38.7831 81.7025 38.7833C81.7023 38.7834 81.7021 38.7836 81.702 38.7838C81.7018 38.784 81.7016 38.7842 81.7014 38.7844C81.7012 38.7845 81.701 38.7847 81.7009 38.7849C81.7004 38.7854 81.7002 38.7855 81.6998 38.786C81.6996 38.7862 81.6994 38.7864 81.6992 38.7866C81.699 38.7868 81.6988 38.787 81.6986 38.7871C81.6984 38.7873 81.6983 38.7875 81.6981 38.7877C81.6979 38.7879 81.6977 38.7881 81.6975 38.7883C81.6967 38.789 81.6971 38.7887 81.6964 38.7894C81.6962 38.7896 81.696 38.7898 81.6958 38.79C81.6956 38.7902 81.6954 38.7904 81.6952 38.7906C81.695 38.7908 81.6948 38.791 81.6946 38.7911C81.6944 38.7913 81.6942 38.7915 81.6941 38.7917C81.6939 38.7919 81.6937 38.7921 81.6935 38.7923C81.6933 38.7925 81.6931 38.7927 81.6929 38.7929L83.1071 40.2071Z" fill="black" mask="url(#path-15-inside-2)"/>
</g>
</g>
<g id="Group_16">
<g id="Vector_15">
<mask id="path-17-inside-3" fill="white">
<path d="M82.6 33C83.8 34 82.3 32.8 82.6 33V33Z"/>
</mask>
<path d="M82.6 33C83.8 34 82.3 32.8 82.6 33V33Z" fill="white"/>
<path d="M81.9598 33.7682C82.1086 33.8922 82.2136 33.9805 82.2844 34.0407C82.3199 34.0709 82.3453 34.0927 82.3625 34.1078C82.3711 34.1153 82.3766 34.1201 82.3796 34.1228C82.3835 34.1263 82.3808 34.1239 82.3744 34.1179C82.3713 34.115 82.3634 34.1074 82.3531 34.0968C82.3478 34.0914 82.3397 34.0829 82.33 34.0722C82.3213 34.0626 82.3051 34.0444 82.2861 34.0203C82.2764 34.0079 82.2627 33.99 82.2474 33.9675C82.233 33.9467 82.2099 33.9112 82.1856 33.8646C82.175 33.8438 82.1532 33.7962 82.1422 33.7694C82.1294 33.7351 82.1049 33.6552 82.0942 33.6095C82.0833 33.549 82.0726 33.4077 82.0755 33.3274C82.0887 33.2246 82.1548 33.006 82.2116 32.8945C82.2884 32.7826 82.4768 32.6 82.5836 32.5308C82.6794 32.4837 82.8601 32.426 82.9419 32.4118C83.0052 32.4055 83.1174 32.4042 83.1658 32.4076C83.2034 32.4118 83.27 32.4229 83.2991 32.4293C83.3225 32.435 83.3645 32.4469 83.3832 32.4528C83.3986 32.458 83.427 32.4682 83.4397 32.4732C83.4696 32.485 83.4937 32.4962 83.5097 32.5041C83.5411 32.5194 83.565 32.5331 83.5772 32.5403C83.5909 32.5484 83.6018 32.5552 83.6088 32.5597C83.6224 32.5684 83.6323 32.5754 83.6364 32.5782C83.6449 32.5842 83.6494 32.5876 83.6472 32.5859C83.6438 32.5834 83.6345 32.5763 83.6181 32.5635C83.6026 32.5513 83.5837 32.5363 83.5622 32.5191C83.5192 32.4847 83.469 32.444 83.4205 32.404C83.3713 32.3635 83.3273 32.3266 83.2954 32.2991C83.2791 32.285 83.27 32.2769 83.2666 32.2738C83.2649 32.2722 83.2679 32.2749 83.274 32.2809C83.2772 32.284 83.2829 32.2897 83.2903 32.2974C83.2969 32.3043 83.3096 32.3178 83.325 32.3359C83.333 32.3453 83.3438 32.3585 83.3563 32.3747C83.3681 32.3902 83.3859 32.4145 83.4057 32.4458C83.4158 32.4618 83.4281 32.4823 83.4412 32.5067C83.454 32.5306 83.47 32.5628 83.4859 32.602C83.5015 32.6401 83.5209 32.6947 83.5358 32.7622C83.5504 32.8282 83.565 32.9259 83.5572 33.044C83.5491 33.1654 83.5163 33.3188 83.4273 33.4743C83.3923 33.5309 83.3112 33.6369 83.2653 33.6857C83.218 33.7299 83.1184 33.8065 83.0668 33.839C82.9333 33.9176 82.8064 33.9507 82.7144 33.9651C82.6222 33.9795 82.5445 33.9784 82.4909 33.9746C82.4359 33.9708 82.3901 33.963 82.3569 33.9561C82.3229 33.949 82.2942 33.9411 82.2721 33.9344C82.2293 33.9215 82.1956 33.9081 82.175 33.8994C82.1531 33.8901 82.1353 33.8817 82.123 33.8756C82.1103 33.8693 82.0997 33.8637 82.0919 33.8595C82.0767 33.8512 82.0655 33.8445 82.0596 33.841C82.0483 33.8341 82.0425 33.8302 82.0453 33.832L83.1547 32.1679C83.1388 32.1573 83.1177 32.1436 83.0944 32.1295C83.0826 32.1223 83.0661 32.1126 83.0465 32.102C83.0365 32.0966 83.0239 32.0899 83.0094 32.0827C82.9952 32.0757 82.9758 32.0665 82.9525 32.0567C82.9304 32.0474 82.8955 32.0335 82.8516 32.0202C82.829 32.0134 82.7998 32.0054 82.7653 31.9982C82.7316 31.9912 82.6854 31.9833 82.6301 31.9795C82.5761 31.9757 82.4981 31.9746 82.4057 31.989C82.3133 32.0035 82.1862 32.0366 82.0526 32.1153C82.0009 32.1478 81.9012 32.2245 81.8538 32.2688C81.8079 32.3177 81.7267 32.4238 81.6917 32.4805C81.6025 32.6362 81.5697 32.7897 81.5616 32.9114C81.5537 33.0297 81.5683 33.1277 81.583 33.194C81.598 33.2618 81.6175 33.3167 81.6332 33.3553C81.6493 33.3948 81.6655 33.4274 81.6785 33.4517C81.6918 33.4765 81.7044 33.4975 81.7149 33.514C81.7352 33.5463 81.7538 33.5717 81.7666 33.5884C81.78 33.6059 81.792 33.6204 81.8011 33.6312C81.8191 33.6523 81.8348 33.6692 81.8452 33.68C81.8562 33.6915 81.8661 33.7014 81.8741 33.7092C81.8897 33.7245 81.9044 33.7383 81.9162 33.7491C81.94 33.7708 81.9654 33.7931 81.989 33.8134C82.0368 33.8547 82.0935 33.9021 82.1487 33.9475C82.2044 33.9935 82.2621 34.0403 82.3128 34.0809C82.3382 34.1012 82.3626 34.1206 82.3847 34.1379C82.406 34.1545 82.4286 34.172 82.4493 34.1875C82.4591 34.1948 82.4736 34.2056 82.4899 34.217C82.4979 34.2226 82.5112 34.2317 82.5275 34.2422C82.5358 34.2476 82.5479 34.2552 82.5627 34.2639C82.5759 34.2717 82.6007 34.2859 82.6329 34.3016C82.6493 34.3096 82.6737 34.321 82.7039 34.3329C82.7168 34.3379 82.7453 34.3482 82.7609 34.3535C82.7797 34.3594 82.8218 34.3713 82.8453 34.3771C82.8745 34.3834 82.9412 34.3946 82.9789 34.3988C83.0274 34.4022 83.1396 34.401 83.203 34.3947C83.2849 34.3804 83.4656 34.3227 83.5614 34.2755C83.6683 34.2063 83.8568 34.0237 83.9336 33.9117C83.9904 33.8002 84.0566 33.5816 84.0698 33.4787C84.0726 33.3983 84.0619 33.257 84.051 33.1964C84.0403 33.1506 84.0158 33.0706 84.0029 33.0362C83.9919 33.0094 83.97 32.9617 83.9594 32.9407C83.935 32.8939 83.9117 32.8582 83.8972 32.837C83.8816 32.8143 83.8677 32.796 83.8576 32.7832C83.8381 32.7584 83.8211 32.7393 83.8115 32.7286C83.8009 32.7169 83.7916 32.7073 83.785 32.7005C83.7721 32.6873 83.7609 32.6764 83.7537 32.6696C83.7392 32.6557 83.7251 32.643 83.7144 32.6334C83.7028 32.623 83.6902 32.612 83.6773 32.6006C83.6513 32.578 83.619 32.5502 83.58 32.5171C83.502 32.4508 83.3914 32.3578 83.2402 32.2318L81.9598 33.7682Z" fill="black" mask="url(#path-17-inside-3)"/>
</g>
</g>
<g id="Group_17">
<g id="Vector_16">
<mask id="path-19-inside-4" fill="white">
<path d="M82.3 39.6C82.4 39.5 82.4 39.5 82.4 39.5C82.3 39.6 82.3 39.6 82.3 39.6Z"/>
</mask>
<path d="M82.3 39.6C82.4 39.5 82.4 39.5 82.4 39.5C82.3 39.6 82.3 39.6 82.3 39.6Z" fill="white"/>
<path d="M82.3 39.6L81.5929 38.8929L82.3 39.6ZM82.4 39.5L83.1071 40.2071L82.4 39.5ZM83.0071 40.3071C83.0561 40.2581 83.0831 40.2311 83.0946 40.2196C83.1027 40.2115 83.1021 40.2121 83.1055 40.2087C83.1113 40.2029 83.1003 40.2139 83.106 40.2082C83.1063 40.2079 83.1062 40.208 83.1064 40.2078C83.1068 40.2074 83.1067 40.2075 83.1069 40.2073C83.107 40.2072 83.107 40.2072 83.107 40.2072C83.107 40.2072 83.107 40.2072 83.107 40.2072C83.1088 40.2054 83.1053 40.2089 83.107 40.2072C83.1074 40.2068 83.1067 40.2075 83.1071 40.2071C83.1071 40.2071 83.1071 40.2071 83.1071 40.2071C83.1071 40.2071 83.1071 40.2071 83.1071 40.2071C83.1071 40.2071 83.1071 40.2071 83.1071 40.2071C83.1071 40.2071 83.1071 40.2071 83.1071 40.2071C83.1071 40.2071 83.1071 40.2071 83.1071 40.2071C83.1071 40.2071 83.1071 40.2071 83.1071 40.2071C83.1071 40.2071 83.1071 40.2071 83.1071 40.2071C83.1076 40.2066 83.1065 40.2077 83.1071 40.2071C83.1071 40.2071 83.1071 40.2071 83.1071 40.2071C83.1071 40.2071 83.1071 40.2071 83.1071 40.2071C83.1071 40.2071 83.1071 40.2071 83.1071 40.2071C83.1071 40.2071 83.1071 40.2071 83.1071 40.2071C83.1071 40.2071 83.1071 40.2071 83.1071 40.2071C83.1071 40.2071 83.1071 40.2071 83.1071 40.2071C83.1071 40.2071 83.1071 40.2071 83.1071 40.2071C83.1071 40.2071 83.1071 40.2071 83.1071 40.2071C83.1071 40.2071 83.1071 40.2071 83.1071 40.2071C83.1071 40.2071 83.1071 40.2071 83.1071 40.2071C83.1071 40.2071 83.1071 40.2071 83.1071 40.2071C81.6929 40.2071 81.6929 38.7929 82.4 39.5C83.1071 40.2071 83.1071 38.7929 81.6929 38.7929C81.6929 38.7929 81.6929 38.7929 81.6929 38.7929C81.6928 38.7929 81.6929 38.7929 81.6929 38.7929C81.6929 38.7929 81.6929 38.7929 81.6929 38.7929C81.6927 38.7931 81.693 38.7927 81.6929 38.7929C81.6929 38.7929 81.6929 38.7929 81.6929 38.7929C81.6923 38.7935 81.6933 38.7924 81.6927 38.7931C81.692 38.7938 81.6926 38.7932 81.6913 38.7945C81.6881 38.7977 81.6933 38.7925 81.6898 38.7959C81.6896 38.7961 81.6896 38.7962 81.6893 38.7964C81.6537 38.8321 81.7248 38.761 81.6891 38.7967C81.6447 38.8411 81.7334 38.7524 81.689 38.7968C81.6889 38.7968 81.6889 38.7969 81.6889 38.7969C81.6889 38.7969 81.6888 38.7969 81.6888 38.797C81.6728 38.8129 81.7042 38.7815 81.6882 38.7975C81.6616 38.8241 81.7142 38.7715 81.6876 38.7982C81.6824 38.8033 81.6869 38.7988 81.6804 38.8054C81.6669 38.8189 81.6439 38.8419 81.5929 38.8929L83.0071 40.3071ZM81.6929 38.7929C81.6439 38.8419 81.6169 38.8689 81.6054 38.8804C81.5973 38.8885 81.5978 38.8879 81.5944 38.8913C81.5939 38.8919 81.5949 38.8909 81.5943 38.8915C81.5943 38.8915 81.5943 38.8915 81.5943 38.8915C81.5943 38.8915 81.5942 38.8915 81.5942 38.8915C81.5942 38.8916 81.5942 38.8916 81.5942 38.8916C81.5942 38.8916 81.5942 38.8916 81.5942 38.8916C81.593 38.8928 81.5953 38.8905 81.594 38.8917C81.594 38.8917 81.594 38.8917 81.594 38.8918C81.594 38.8918 81.594 38.8918 81.594 38.8918C81.5934 38.8924 81.5945 38.8912 81.5939 38.8918C81.5932 38.8925 81.5945 38.8913 81.5938 38.892C81.5931 38.8927 81.5945 38.8913 81.5938 38.892C81.5933 38.8925 81.5942 38.8915 81.5937 38.8921C81.5937 38.8921 81.5937 38.8921 81.5937 38.8921C81.5937 38.8921 81.5937 38.8921 81.5937 38.8921C81.5937 38.8921 81.5937 38.8921 81.5936 38.8921C81.5936 38.8921 81.5936 38.8921 81.5936 38.8921C81.5861 38.8996 81.601 38.8847 81.5935 38.8922C81.5935 38.8922 81.5935 38.8923 81.5935 38.8923C81.5928 38.893 81.5941 38.8917 81.5934 38.8924C81.5922 38.8936 81.5945 38.8913 81.5933 38.8925C81.5915 38.8943 81.5949 38.8908 81.5932 38.8926C81.5932 38.8926 81.5932 38.8926 81.5931 38.8926C81.5931 38.8926 81.5931 38.8926 81.5931 38.8926C81.5931 38.8926 81.5931 38.8926 81.5931 38.8926C81.5931 38.8927 81.5931 38.8927 81.5931 38.8927C81.593 38.8928 81.5932 38.8925 81.5931 38.8927C81.5931 38.8927 81.5931 38.8927 81.5931 38.8927C81.5931 38.8927 81.5931 38.8927 81.5931 38.8927C81.5929 38.8929 81.5932 38.8925 81.5931 38.8927C81.593 38.8928 81.5931 38.8927 81.593 38.8927C81.593 38.8927 81.593 38.8928 81.593 38.8928C81.5929 38.8929 81.5931 38.8927 81.593 38.8928C81.5929 38.8928 81.5929 38.8929 81.5929 38.8929C81.5928 38.893 81.593 38.8928 81.5929 38.8929C81.5929 38.8929 81.5929 38.8929 81.5929 38.8929C81.5929 38.8929 81.5929 38.8929 81.5929 38.8929C81.5929 38.8929 81.5929 38.8929 81.5929 38.8929C81.5929 38.8929 81.5929 38.8929 81.5929 38.8929C81.5929 38.8929 81.5929 38.8929 81.5929 38.8929C81.5929 38.8929 81.5929 38.8929 81.5929 38.8929C81.5929 38.8929 81.5929 38.8929 81.5929 38.8929C81.5929 38.8929 81.5929 38.8929 81.5929 38.8929C81.5929 38.8929 81.5929 38.8929 81.5929 38.8929C81.5929 38.8929 81.5929 38.8929 81.5929 38.8929C81.5929 38.8929 81.5929 38.8929 81.5929 38.8929C81.5929 38.8929 81.5929 38.8929 81.5929 38.8929C82.3 39.6 83.0071 40.3071 82.3 39.6C81.5929 38.8929 82.3 39.6 83.0071 40.3071C83.0071 40.3071 83.0071 40.3071 83.0071 40.3071C83.0071 40.3071 83.0071 40.3071 83.0071 40.3071C83.0071 40.3071 83.0071 40.3071 83.0071 40.3071C83.0071 40.3071 83.0071 40.3071 83.0071 40.3071C83.0071 40.3071 83.0071 40.3071 83.0071 40.3071C83.0071 40.3071 83.0071 40.3071 83.0071 40.3071C83.0071 40.3071 83.0071 40.3071 83.0071 40.3071C83.0071 40.3071 83.007 40.3072 83.0071 40.3071C83.0072 40.307 83.007 40.3072 83.0071 40.3071C83.0071 40.3071 83.0071 40.3071 83.0071 40.3071C83.0073 40.3069 83.007 40.3072 83.0073 40.3069C83.008 40.3062 83.0074 40.3068 83.0087 40.3055C83.0122 40.302 83.0058 40.3084 83.0093 40.3049C83.0107 40.3035 83.0087 40.3055 83.0101 40.3041C83.0127 40.3015 83.0095 40.3047 83.0124 40.3018C83.0175 40.2967 83.013 40.3012 83.0196 40.2946C83.0331 40.2811 83.0561 40.2581 83.1071 40.2071L81.6929 38.7929Z" fill="black" mask="url(#path-19-inside-4)"/>
</g>
</g>
<g id="Group_18">
<path id="Vector_17" d="M65.4744 46.4118L66.3841 45.3201L67.8841 43.5201L67.8841 43.5201L67.8876 43.5158C68.919 42.25 70.211 41.4999 71.5582 41.3075C72.8945 41.1166 74.3289 41.4678 75.6761 42.482C75.6952 42.4994 75.7151 42.5165 75.7354 42.5328C76.9424 43.6097 77.423 45.336 76.6528 46.8764L76.6435 46.895L76.6358 46.9143C76.6059 46.989 76.5198 47.1448 76.3636 47.3852C76.2139 47.6155 76.0179 47.8964 75.7894 48.2106C75.6802 48.3607 75.5642 48.5176 75.4431 48.6792C75.7305 48.1443 75.838 47.5905 75.7937 47.0439C75.7354 46.3259 75.419 45.6615 74.984 45.0954C74.1297 43.9835 72.7358 43.1431 71.5157 42.9129C70.8666 42.729 70.0555 42.8703 69.3513 43.1311C68.6274 43.3993 67.902 43.8357 67.4321 44.3613C67.2147 44.5947 67.3185 44.8738 67.3304 44.906L67.3306 44.9065C67.3593 44.9838 67.4009 45.0459 67.4257 45.0808C67.481 45.1587 67.5568 45.2436 67.635 45.3255C67.7968 45.495 68.0312 45.7157 68.3082 45.9643C68.8653 46.4642 69.6256 47.1046 70.399 47.727C71.1718 48.349 71.9655 48.9596 72.5889 49.398C72.8985 49.6158 73.1778 49.7994 73.3964 49.9209C73.5025 49.9798 73.6158 50.0363 73.7219 50.0714C73.773 50.0883 73.8502 50.1097 73.9388 50.1126C74.015 50.1151 74.1853 50.1061 74.3325 49.9736C74.4389 49.8824 74.5274 49.8074 74.601 49.745C74.626 49.7238 74.6492 49.7041 74.6709 49.6857C74.5103 49.8908 74.3473 50.0968 74.1846 50.3002C73.6125 51.0152 73.0489 51.6933 72.618 52.1842C72.6027 52.2017 72.5875 52.2189 72.5726 52.2358C72.5705 52.2301 72.5683 52.2245 72.566 52.2188C72.5335 52.1347 72.4851 52.0728 72.4703 52.0537L72.4689 52.0519C72.4423 52.0177 72.4122 51.9838 72.3834 51.9528C72.3249 51.8899 72.2487 51.8146 72.1614 51.7317C71.9856 51.5646 71.7437 51.3464 71.4602 51.0967C70.892 50.5962 70.1419 49.956 69.3848 49.3177C67.8775 48.0471 66.3142 46.7607 66.1 46.6L66.0794 46.5845L66.0573 46.5713C65.8525 46.4484 65.6498 46.4117 65.4744 46.4118ZM75.9846 42.0884C75.908 42.0306 75.8311 41.9747 75.7538 41.9208C75.6724 42.0324 75.6523 42.16 75.6601 42.2555C75.665 42.3159 75.6802 42.3658 75.6946 42.4015L75.9846 42.0884Z" fill="white" stroke="black"/>
</g>
</g>
</g>
</g>
<path id="Vector_18" d="M50.6 57.5L50.9 57.1L78.5 24.8C71.6 25.7 66.6 30.9 59.9 29.8C56.5 29.2 56.4 27.3 55.4 25.3C54.7 23.8 53.5 24 51.9 23.4C50.5 22.8 49.6 21.7 46.7 22.3C44.2 22.9 43.9 26.8 40.7 26.6C39 26.5 38.9 24.1 36.5 21.1C30.2 13.5 24.3 14.6 20.3 21.6L50.6 57.5Z" fill="#491213"/>
<g id="Group_19">
<path id="Vector_19" d="M46.5 70.9L50.6 64.4L54.6 70.9L50.6 77.4L46.5 70.9Z" fill="#23A9E1"/>
</g>
<g id="Group_20">
<g id="Group_21">
<path id="Vector_20" d="M23.3 32.3C23.8 32.9 24.2 33.6 24.1 34.4C24 35 23.2 36 23.8 36.2C24.5 35.3 25.3 34.3 26 33.4C25.4 33.2 20.6 27.6 20.6 26.9C19.5 27.5 18.5 28.1 17.4 28.6C17.6 29.3 18.7 28.6 19.3 28.6C20.1 28.7 20.7 29.2 21.3 29.8C19.6 31.2 15.4 34.8 14.9 34.9C14.7 34.9 13.8 34.3 13.8 34.8C13.8 35.1 14.7 35.8 14.8 36C15.5 36.9 16.3 37.8 17 38.7C17.6 38.4 16.9 38 17.2 37.5C17.5 37.1 22.1 33.2 23.3 32.3Z" fill="white"/>
</g>
<g id="Group_22">
<path id="Vector_21" d="M18 25.3C18.4 25.2 18.6 25.7 19 25.2C18.2 24.2 17.4 23.3 16.6 22.3C16.2 21.9 15.8 21.4 15.9 22.3C16 22.9 9.8 28 9.4 28.1C8.9 28.3 8.6 27.7 8.3 28.2C9 29.1 9.8 29.9 10.5 30.8C10.7 31.1 11 31.4 11.2 31.7C11.5 32 11.4 31 11.4 31.1C11.3 30.6 11.9 30.2 12.3 29.9C13.8 28.6 17.6 25.3 18 25.3Z" fill="white"/>
</g>
<g id="Group_23">
<path id="Vector_22" d="M9.2 24.4C7.4 24.9 5.5 24.2 5 22.4C4.5 20.6 5.6 18.6 7.1 17.6C8.5 16.6 10.7 16.6 11.5 18.4C11.8 19.2 11.7 20.1 11.4 20.9C11.2 21.4 10.8 21.9 11.5 22.2C12.4 21.1 13.2 20 14.1 18.9C13 18.3 12.6 17.2 11.8 16.3C10.9 15.2 9.7 14.2 8.3 14C5.4 13.6 2.7 16.6 2.5 19.2C2.4 20.7 2.9 22 3.7 23.2C4.5 24.2 5.6 24.8 6.1 26C6.4 26.1 8.8 25 9.4 24.7C9.3 24.6 9.3 24.5 9.2 24.4C8.5 24.6 9.2 24.4 9.2 24.4Z" fill="white"/>
</g>
<g id="Group_24">
<path id="Vector_23" d="M48.5 60.8C47.3 60 44.5 56.1 43.9 55.5C43.8 55.4 43.7 55.2 43.6 55.1C43.6 55.1 43.3 55.3 43.4 55.3C43.2 55.4 43.5 55.9 43.3 56.2C42.5 57.4 37.5 61.2 37.3 61.4C36.7 61.8 36.1 61.2 35.8 61.7C36.5 62.6 38.6 65.2 38.8 65.3C39.3 65.4 38.9 64.5 39 64.3C39.1 63.9 41.6 61.9 42.5 61.1C42.8 60.8 43.2 61.5 43.4 61.8C43.7 62.3 43.9 62.8 43.7 63.4C43.6 63.8 43 64.3 43.4 64.6C44 63.9 45.8 61.8 46 61.6C46.3 61.3 45.4 61.6 45.5 61.5C45.1 61.7 44.8 61.7 44.4 61.5C44.3 61.4 43.3 60.4 43.4 60.3C43.8 59.9 44.4 59.3 44.9 59.2C45.8 59 46.5 60.7 46.6 61.3C46.7 61.9 46.7 62.5 46.5 63.1C46.4 63.5 46 63.8 46.5 64C47.2 63 47.9 62.1 48.6 61.1C48.8 60.9 48.6 60.8 48.5 60.8C48.4 60.7 48.7 60.8 48.5 60.8Z" fill="white"/>
</g>
<g id="Group_25">
<path id="Vector_24" d="M38.3 56.6C40.5 54.7 40.8 51.5 39.1 49.3C37.2 46.8 33.7 46.2 31.3 48.2C29.1 50.1 28.8 53.2 30.5 55.5C32.5 58.2 35.7 58.5 38.3 56.6C39.5 55.7 38.2 56.7 38.3 56.6ZM37.8 51.9C37.2 53.4 35.6 55 34.1 55.6C32.3 56.3 31 54.8 31.7 53C32.4 51.5 33.9 49.9 35.4 49.3C37.3 48.6 38.5 50.2 37.8 51.9C37.4 52.8 37.9 51.7 37.8 51.9Z" fill="white"/>
</g>
<g id="Group_26">
<path id="Vector_25" d="M31.9 42C32.4 42.1 32.8 42.5 33.2 42C32.5 41.1 31.7 40.2 31 39.4C30.4 39.7 31 39.9 30.8 40.4C30.6 40.8 28.2 41.2 27.6 41.3C27.8 40.7 28.5 38.7 28.8 38.5C29.3 38.1 29.7 38.9 30.1 38.4C29.2 37.3 28.3 36.2 27.4 35.1C27.1 34.7 26.8 34.1 26.4 34.4C26.4 34.4 26.4 35.9 26.3 36.1C26.2 36.3 25.4 39.7 24.4 40.6C23.9 41 22.2 42.5 21.7 42.7C21.2 42.9 20.9 42.1 20.5 42.7C21.3 43.7 22.2 44.7 23 45.7C23.1 45.8 23.6 46.6 23.8 46.6C24.3 46.7 23.9 45.7 23.9 45.5C24.1 45.1 26.4 42.8 27.4 42.6C28.6 42.4 30.4 41.9 31.9 42C32.2 42.1 31.5 42 31.9 42Z" fill="white"/>
</g>
</g>
<g id="Group_27">
<path id="Vector_26" d="M25.6 22.9C21.6 22.7 23.2 18.9 26 18.1C28.6 17.3 34.1 19.8 35.8 21.5C33 22.4 29.4 22.2 26.4 22.4C26.2 19.2 25.4 20.3 25.6 22.9Z" fill="#DC6243"/>
</g>
<g id="Group_28">
<path id="Vector_27" d="M26.6 27.7C24.6 26.1 25.2 22.4 28.4 23.6C32.4 25.7 27.5 26.8 26.6 27.7Z" fill="#DC6243"/>
</g>
<g id="Group_29">
<path id="Vector_28" d="M35.1 35.4C26.5 35.3 32.3 22.1 35.2 22.9C38.6 24 38.2 35.5 35.1 35.4Z" fill="#DC6243"/>
</g>
<g id="Group_30">
<path id="Vector_29" d="M41.2 31.1C40.4 33.6 38.8 34.1 39 31C39.2 27.5 41.5 28.3 43.9 27C45.9 25.9 47 21.8 50.5 24.2C52.1 25.3 53.9 24.4 54.4 26C54.4 25.9 49.9 36.3 52.4 36.3C47.4 36.3 49.6 30.4 51.5 26.4C49.7 27.3 46.7 33.1 49.1 34C47.8 35.7 43.9 37.9 41.9 36.3C40.4 35.2 41.2 33.1 41.2 31.1Z" fill="#DC6243"/>
</g>
<g id="Group_31">
<path id="Vector_30" d="M45.3 40.7C41.8 41.7 37.2 39.5 42.8 38.4C46.3 37.7 50 39.1 45.3 40.7C45.4 40.7 45.2 40.7 45.3 40.7Z" fill="#DC6243"/>
</g>
<g id="Group_32">
<path id="Vector_31" d="M49.7 40.6C49 38.9 50.3 37 52.4 38.4C54.2 39.6 51.5 41.5 49.7 40.6Z" fill="#DC6243"/>
</g>
<g id="Group_33">
<path id="Vector_32" d="M46.7 45.2C44.3 44.5 36.2 44.6 41.5 42.4C43.2 41.8 51.7 42.6 46.7 45.2Z" fill="#DC6243"/>
</g>
<g id="Group_34">
<path id="Vector_33" d="M49.9 44.9C49.9 43.9 49.4 42.2 51.3 43C53.5 43.8 49.9 45.6 49.9 44.9C49.9 44.9 49.9 44.7 49.9 44.9Z" fill="#DC6243"/>
</g>
<g id="Group_35">
<path id="Vector_34" d="M57.2 48.5C55.8 47.3 54.3 47.2 53 48.5C51.2 45.2 44.7 46.3 41.6 45.8C43.2 49.9 56.4 50.7 57.2 48.5Z" fill="#DC6243"/>
</g>
<g id="Group_36">
<path id="Vector_35" d="M55.3 51C52.1 50.9 48.6 50.4 45.7 51.1C47.6 51.6 52.1 52.9 47.9 54C49.4 56.2 51.9 56 53.5 54.1C52.8 53.8 52.5 53.4 51.9 53C53.5 52.7 55.1 51.8 55.3 51Z" fill="#DC6243"/>
</g>
<g id="Group_37">
<path id="Vector_36" d="M58.9 47.1C53.6 44 54.9 41.7 59.3 39.5C61.6 38.4 66.6 34.3 68.7 35.6C65.4 39.5 62.1 43.3 58.9 47.1Z" fill="#DC6243"/>
</g>
<g id="Group_38">
<path id="Vector_37" d="M55.1 39.8C50.6 35.2 61.8 35.6 63.6 34C64.9 34.4 74.4 25.7 76.7 26.3C75 28.2 71.5 34.4 68.9 34.4C66.9 34.4 64.9 34.1 63.4 35.5C61.2 37.6 57.5 38.6 55.1 39.8Z" fill="#F49774"/>
</g>
<g id="Group_39">
<path id="Vector_38" d="M56.6 34.2C54.1 35.5 51.8 30.3 56.1 30.8C58.9 31.1 61.8 30.6 64.4 31C62.4 33.3 59.7 34.6 56.6 34.2Z" fill="#F4B1A4"/>
</g>
<g id="Group_40">
<g id="Group_41">
<path id="Vector_39" d="M69.2 52.5C69.4 53.1 69.5 53.8 69.4 54.5C69.3 55.4 68.4 57.4 67.2 56.8C66 56.2 65 55.1 64 54.2C64.8 53.3 65.5 52.5 66.9 52.9C67.3 53 67.6 52.9 67.2 52.6C66.8 52.4 64.1 50.6 63.9 50.8C63.6 51.1 64.4 51.7 64.1 52.3C63.9 52.7 63.5 53.1 63.2 53.5C62.5 52.9 61.3 52.2 62.1 51.2C62.6 50.5 63.4 50 64.2 49.9C64.8 49.8 66 50.3 66.2 49.7C65.1 49.2 64 48.7 62.9 48.1C63.1 48.9 59.6 52.6 58.8 53.6C58.7 53.7 58.1 54.2 58.1 54.4C58.1 54.8 58.7 54.5 58.8 54.5C59.3 54.3 65.6 59.6 65.8 60C65.9 60.3 65.6 60.6 65.8 60.7C65.8 60.7 66 60.9 66.1 60.9C66.5 60.4 70.6 54.9 71.5 54.7C70.7 53.5 69.9 52.3 69.1 51C68.5 51.3 69.1 52 69.2 52.5Z" fill="white"/>
</g>
<g id="Group_42">
<path id="Vector_40" d="M63 59.2C60.9 57.9 57.4 60.5 56.9 60.7C55.9 61.2 55.1 60.2 55.6 59.2C56.1 58.4 57 58 57.9 57.9C58.2 57.9 59.2 58.1 59.4 57.9C59.5 57.7 59.6 57.7 59.4 57.6C58.5 57 57.7 56.4 56.8 55.9C56.6 57 55.4 57.6 54.7 58.3C53.9 59.2 53.2 60.2 53.2 61.5C53.2 62.6 53.9 63.6 54.9 64.2C56 64.8 57.2 64.3 58.2 63.7C58.8 63.3 59.5 62.8 60.1 62.5C61.1 62 62.4 62.4 62.1 63.8C61.8 64.9 60.7 65.9 59.7 66.1C59.1 66.3 58.4 66.2 57.8 66C57.4 65.9 56.8 65.3 56.6 65.9C57.8 66.7 58.9 67.6 60.1 68.4C60.2 67.6 60.6 67.3 61.2 66.8C61.9 66.2 62.6 65.5 63.2 64.7C64.4 63 64.8 60.6 63 59.2Z" fill="white"/>
</g>
<g id="Group_43">
<path id="Vector_41" d="M63 59.2C64 59.8 62.4 58.7 63 59.2V59.2Z" fill="white"/>
</g>
<g id="Group_44">
<path id="Vector_42" d="M99.7 19.6C99 20.3 91.3 17.3 90.7 16.8C90.4 16.7 90.4 15.5 90 16C89.6 16.5 89.2 17 88.8 17.5C88.4 18 88 18.5 87.5 19C87.2 19.3 87 19.5 87.5 19.7C88.3 19.3 92.9 27 92.5 28.2C91.8 28.6 85.6 23.1 85.4 22.8C85.3 22.7 85.7 21.8 85.2 21.9C85 21.9 84.5 22.8 84.3 23C84 23.4 83.7 23.7 83.4 24.1C83.7 24.6 83.9 24.1 84.4 24.1C84.8 24.2 86.2 25.4 86.6 25.8C85.9 25.8 83.9 25.9 83.7 25.9C82.8 26 83.3 25.2 82.7 25C81.9 25.9 81.2 26.8 80.4 27.8C80 28.3 79.5 28.9 79.1 29.4C79 29.5 79.1 29.4 79.1 29.5C79.4 29.8 79.2 29.7 79.7 29.5C80.2 29.3 86.3 34.4 86.5 34.7C86.9 35.1 86.3 35.7 86.9 35.9C87.5 35.2 88.1 34.4 88.7 33.7C88.8 33.6 88.8 33.6 88.7 33.5C88.3 33.1 88.2 33.7 87.7 33.7C87.2 33.6 83.3 30.3 81.8 29.1C83.6 29 89.1 28.8 90 28.8C90.3 28.8 91.1 29.7 91.1 30C91 30.4 90.6 30.6 91.2 30.8C91.7 30.2 92.2 29.7 92.7 29.1L92.9 28.8C93 28.7 93 28.7 93.1 28.5L93.3 28.3C93.7 27.8 95.1 26.3 94.9 26.2C94.4 25.8 94.2 26.7 93.6 26.1C93.3 25.9 92.4 24.3 92.2 23.9C91.9 23.5 92.8 23 93.2 22.8C94 22.3 96.4 21.6 96.7 23.1C96.7 23.4 96.4 23.6 96.6 23.8C96.6 23.8 96.8 24 96.9 24C97.1 23.8 99.3 21.2 100.2 20C99.9 19.8 99.8 19.7 99.7 19.6ZM92.3 21.8C92.4 21.8 92.5 21.7 92.3 21.8C92 22 91.6 22.3 91.3 22.6C90.8 21.7 90.3 20.8 89.7 19.9C90.9 20.4 92.1 20.9 93.2 21.4C93 21.5 92.7 21.6 92.3 21.8Z" fill="white"/>
</g>
<g id="Group_45">
<path id="Vector_43" d="M82.6 33C80.2 31 77 31.6 75 33.8C73.1 36.1 73.3 39.5 75.6 41.4C77.9 43.3 81.3 42.8 83.2 40.6C85.1 38.3 85 34.9 82.6 33ZM82.3 39.6C82.3 39.6 82.3 39.7 82.3 39.6C81 40.9 78.9 39.7 77.8 38.9C76.7 38.1 74.7 36.3 75.9 34.8C77 33.5 79 34.6 80.1 35.3C81.3 36.1 83.5 37.9 82.4 39.5C82.5 39.4 82.5 39.4 82.3 39.6Z" fill="white"/>
</g>
<g id="Group_46">
<path id="Vector_44" d="M82.6 33C83.8 34 82.3 32.8 82.6 33V33Z" fill="white"/>
</g>
<g id="Group_47">
<path id="Vector_45" d="M82.3 39.7C82.3 39.6 82.3 39.6 82.3 39.7C82.4 39.6 82.4 39.6 82.4 39.6C82.3 39.6 82.3 39.7 82.3 39.7Z" fill="white"/>
</g>
<g id="Group_48">
<path id="Vector_46" d="M76 42.1C76.1 42.2 76.3 42.4 76 42.1C73.1 39.9 69.7 40.5 67.5 43.2C66.5 44.4 65.5 45.6 64.5 46.8C64.9 47.3 65.3 46.7 65.8 47C66.2 47.3 72 52.1 72.1 52.4C72.3 52.9 71.8 52.9 72.2 53.3C72.4 53.4 76.7 48.1 77.1 47.1C78 45.3 77.4 43.4 76 42.1ZM74.7 48.9C74.5 49.2 74.7 49 74 49.6C73.7 49.9 67.6 44.9 67.8 44.7C68.6 43.8 70.4 43.1 71.4 43.4C73.6 43.9 76.6 46.6 74.7 48.9Z" fill="white"/>
</g>
</g>
</g>
</svg>
