<svg width="19" height="29" viewBox="0 0 19 29" fill="none" xmlns="http://www.w3.org/2000/svg">
<g filter="url(#filter0_d)">
<path d="M11.3 3.4C12.1 3.4 12.9 3.4 13.7 3.4C13.7 2.3 13.7 1.2 13.7 0C12.7 0 11.8 0 10.8 0C7.7 0.2 6.5 2.4 6.9 6.1H5V9.6H7C7 12.7 7 15.8 7 18.9C8.3 18.9 9.6 18.9 10.8 18.9C10.8 15.8 10.8 12.7 10.8 9.6H13.7V6.1H10.8C10.8 5.1 10.8 3.7 11.3 3.4Z" fill="white"/>
</g>
<defs>
<filter id="filter0_d" x="0" y="0" width="18.7" height="28.9" filterUnits="userSpaceOnUse" color-interpolation-filters="sRGB">
<feFlood flood-opacity="0" result="BackgroundImageFix"/>
<feColorMatrix in="SourceAlpha" type="matrix" values="0 0 0 0 0 0 0 0 0 0 0 0 0 0 0 0 0 0 127 0"/>
<feOffset dy="5"/>
<feGaussianBlur stdDeviation="2.5"/>
<feColorMatrix type="matrix" values="0 0 0 0 0 0 0 0 0 0 0 0 0 0 0 0 0 0 0.2 0"/>
<feBlend mode="normal" in2="BackgroundImageFix" result="effect1_dropShadow"/>
<feBlend mode="normal" in="SourceGraphic" in2="effect1_dropShadow" result="shape"/>
</filter>
</defs>
</svg>
