<svg width="284" height="75" viewBox="0 0 284 75" fill="none" xmlns="http://www.w3.org/2000/svg">
<path d="M22.2523 12.7004C29.9774 10.1004 30.479 0.500397 22.9546 0.500397C20.8477 0.500397 18.3395 2.00039 16.634 4.90039L6.4007 22.6004C5.89907 23.4004 5.49776 24.1004 4.89581 24.8004C2.28732 21.2004 2.9896 15.8004 6.70168 13.4004L5.19678 11.5004C-2.82934 16.6004 -0.421497 31.2004 12.9219 31.2004C24.2588 31.2004 29.5761 17.6004 22.2523 12.7004ZM12.8216 28.3004C10.5141 28.3004 8.80853 27.8004 7.30363 27.0004C8.00592 26.2004 8.60788 25.3004 9.20984 24.3004L15.6307 13.2004L16.634 13.3004C25.563 15.2004 22.0516 28.3004 12.8216 28.3004ZM16.935 11.0004L20.0451 5.70041C22.8542 0.900409 26.3657 3.70038 24.4595 7.30038C22.9546 10.1004 20.8477 10.9004 16.935 11.0004Z" fill="white"/>
<path d="M54.4571 25.0002C53.8552 27.2002 55.0591 29.1002 57.5673 29.1002C59.0722 29.1002 60.9784 28.1002 62.8846 26.6002C63.0852 28.1002 64.2891 29.1002 66.1953 29.1002C68.2019 29.1002 70.4091 27.7002 72.6162 25.7002C72.2149 27.7002 73.1179 29.1002 75.0241 29.1002C77.1309 29.1002 79.4384 27.2002 81.2443 25.5002C80.843 27.5002 82.0469 29.1002 84.4548 29.1002C87.5649 29.1002 91.1766 25.7002 94.3871 22.1002C94.3871 22.0002 94.2867 22.0002 94.2867 21.9002C96.3936 19.5002 98.1995 16.9002 99.604 15.1002C98.0991 19.0002 98.9018 26.1002 95.29 26.1002C93.9858 26.1002 93.4841 24.7002 93.4841 24.7002L91.0763 25.9002C91.0763 25.9002 91.7786 29.0002 95.29 29.0002C95.6913 29.0002 95.9923 29.0002 96.3936 28.9002H96.4939C99.3031 28.5002 102.012 26.8002 104.42 24.7002C104.52 27.2002 106.426 29.0002 109.536 29.0002C113.85 29.0002 118.164 25.6002 121.275 22.0002C120.974 21.5002 120.372 20.9002 119.87 20.7002L119.569 21.0002C116.86 24.2002 113.349 26.7002 110.64 26.7002C108.332 26.7002 106.928 25.2002 108.633 22.2002L109.035 21.5002C111.443 22.5002 116.058 22.0002 118.967 17.1002L119.469 16.2002C121.475 12.7002 119.569 10.1002 116.459 10.1002C113.349 10.1002 110.941 11.7002 109.336 14.5002L105.624 20.8002H105.523L105.222 21.1002C103.818 22.7002 102.112 24.2002 100.607 25.2002C101.811 21.6002 101.51 16.0002 103.918 11.2002L101.109 9.7002C99.5037 11.9002 96.0926 16.8002 92.6815 20.8002L92.7818 20.9002L92.6815 21.1002C89.9727 24.3002 87.2639 26.8002 85.5583 26.8002C84.7557 26.8002 84.2541 26.2002 85.157 24.7002L93.2835 10.5002H89.4711L82.7492 22.3002C79.8397 24.9002 77.6326 26.4002 76.9303 26.1002C76.0273 25.7002 76.9303 24.3002 77.4319 23.5002L84.8561 10.6002H81.0437L75.0241 21.0002C74.9237 20.9002 74.8234 20.9002 74.7231 20.8002L74.4221 21.1002C71.7133 24.3002 69.0045 26.8002 67.2989 26.8002C66.4963 26.8002 65.9947 26.2002 66.8976 24.7002L73.0175 14.0002H70.8104C70.9107 12.4002 69.3055 10.2002 66.7973 10.2002C64.7908 10.2002 61.8813 11.8002 60.2761 14.6002L56.4637 21.2002C56.263 21.0002 56.0624 20.9002 55.8617 20.8002L55.5607 21.1002C52.8519 24.3002 49.3405 26.8002 46.6317 26.8002C44.3242 26.8002 42.9196 25.3002 44.6251 22.3002L48.5379 15.5002C50.7451 11.7002 54.6578 12.4002 52.3503 16.3002L51.8487 17.2002H54.9588L55.4604 16.3002C57.4669 12.8002 55.5607 10.2002 52.4506 10.2002C49.3405 10.2002 46.9327 11.8002 45.3274 14.6002L41.515 21.1002C41.4147 21.0002 41.3144 21.0002 41.2141 20.9002L40.9131 21.2002C38.2043 24.4002 34.6928 26.9002 31.984 26.9002C29.6765 26.9002 28.2719 25.4002 29.9775 22.4002L30.3788 21.7002C32.7866 22.7002 37.4017 22.2002 40.3111 17.3002L40.8127 16.4002C42.8193 12.9002 40.9131 10.3002 37.803 10.3002C34.6928 10.3002 32.285 11.9002 30.6798 14.7002L26.6667 21.5002C24.2589 25.5002 26.3657 29.3002 30.8804 29.3002C34.1912 29.3002 37.6023 27.3002 40.3111 24.7002C40.2108 27.3002 42.2173 29.3002 45.4278 29.3002C48.6382 29.1002 51.7483 27.3002 54.4571 25.0002ZM112.646 15.4002C114.854 11.6002 118.766 12.3002 116.459 16.2002L115.957 17.1002C114.151 20.2002 111.643 20.1002 110.239 19.6002L112.646 15.4002ZM58.2696 24.7002L63.5869 15.5002C65.5934 12.0002 69.7068 12.9002 67.8006 16.3002L64.7908 21.5002C62.4833 25.1002 60.1757 26.8002 58.6709 26.8002C57.8682 26.7002 57.3666 26.2002 58.2696 24.7002ZM33.9906 15.4002C36.1977 11.6002 40.1105 12.3002 37.803 16.2002L37.3013 17.1002C35.4954 20.2002 32.9873 20.1002 31.5827 19.6002L33.9906 15.4002Z" fill="white"/>
<path d="M163.01 29.1004C167.324 29.1004 171.638 25.7004 174.748 22.1004C174.448 21.6004 173.846 21.0004 173.344 20.8004L173.043 21.1004C170.334 24.3004 166.823 26.8004 164.114 26.8004C161.806 26.8004 160.402 25.3004 162.107 22.3004L162.509 21.6004C164.916 22.6004 169.532 22.1004 172.441 17.2004L172.943 16.3004C174.949 12.8004 173.043 10.2004 169.933 10.2004C166.823 10.2004 164.415 11.8004 162.81 14.6004L159.098 20.9004C159.098 20.9004 158.997 20.9004 158.997 20.8004L158.696 21.1004C155.987 24.3004 153.279 26.8004 151.573 26.8004C150.77 26.8004 150.269 26.2004 151.172 24.7004L156.69 15.1004C158.295 12.2004 156.79 10.1004 154.683 10.1004C153.078 10.1004 151.272 11.0004 149.366 13.0004L155.486 2.5004H151.573L140.838 21.0004C140.738 20.9004 140.537 20.8004 140.437 20.7004L140.136 21.0004C137.427 24.2004 134.718 26.7004 133.013 26.7004C132.21 26.7004 131.708 26.1004 132.611 24.6004L140.738 10.4004H143.848L144.952 8.6004H141.841L145.453 2.40039H141.641L138.029 8.6004H134.618L133.514 10.4004H137.026L129.401 23.6004C127.796 26.4004 128.899 29.0004 132.009 29.0004C133.916 29.0004 135.922 27.8004 138.029 26.0004L136.524 28.6004H140.337L146.155 18.6004C151.974 11.3004 154.583 12.2004 152.978 15.0004L148.062 23.6004C146.456 26.4004 147.56 29.0004 150.67 29.0004C152.978 29.0004 155.586 27.2004 157.994 24.8004C157.994 27.3004 159.9 29.1004 163.01 29.1004ZM166.12 15.4004C168.328 11.6004 172.24 12.3004 169.933 16.2004L169.431 17.1004C167.625 20.2004 165.117 20.1004 163.713 19.6004L166.12 15.4004Z" fill="white"/>
<path d="M278.386 20.8004L278.085 21.1004C275.376 24.3004 272.667 26.8004 270.962 26.8004C270.159 26.8004 269.657 26.2004 270.56 24.7004L283.402 2.5004H279.59L273.971 12.1004C273.269 11.0004 272.065 10.1004 270.46 10.1004C268.453 10.1004 265.544 11.7004 263.939 14.5004L260.227 20.9004C260.126 20.9004 260.026 20.8004 260.026 20.8004L259.725 21.1004C257.016 24.3004 254.307 26.8004 252.602 26.8004C251.799 26.8004 251.298 26.2004 252.201 24.7004L257.719 15.1004C259.324 12.2004 257.819 10.1004 255.712 10.1004C254.107 10.1004 252.301 11.0004 250.395 12.9004L251.799 10.4004H247.987L241.867 20.9004C241.767 20.8004 241.666 20.7004 241.466 20.7004L241.165 21.0004C238.456 24.2004 235.747 26.7004 234.041 26.7004C233.239 26.7004 232.737 26.1004 233.64 24.6004L239.76 13.9004H237.854C237.954 12.3004 236.349 10.1004 233.841 10.1004C231.834 10.1004 228.925 11.7004 227.32 14.5004L223.608 20.8004L223.407 21.0004C220.698 24.2004 217.989 26.7004 216.284 26.7004C215.481 26.7004 214.979 26.1004 215.882 24.6004L219.695 18.0004C220.999 15.7004 220.397 14.4004 219.193 12.9004L217.086 10.3004C216.585 9.60038 216.585 8.8004 217.287 8.1004L215.28 5.90039C213.073 7.80039 212.973 10.0004 214.277 11.7004L214.578 12.1004C212.873 14.5004 210.665 17.7004 208.157 20.6004C208.258 20.7004 208.358 20.8004 208.458 20.9004C205.348 24.5004 202.639 26.8004 199.63 28.1004L204.445 19.9004H200.733L200.332 20.6004C198.325 24.1004 196.018 26.7004 193.008 26.7004C190.399 26.7004 189.898 24.1004 192.205 20.2004L193.309 18.3004C194.011 18.4004 194.714 18.5004 195.516 18.5004C209.06 18.5004 215.581 0.400391 203.643 0.400391C201.536 0.400391 199.028 1.90038 197.322 4.80038L191.403 15.0004C189.196 13.8004 187.992 11.7004 187.992 9.6004C187.992 7.8004 188.794 6.10038 190.399 4.80038L189.196 2.6004C186.487 4.5004 185.283 7.10041 185.283 9.70041C185.283 12.7004 186.988 15.6004 190.098 17.2004L188.995 19.2004C186.286 23.8004 186.788 28.9004 192.205 28.9004C193.811 28.9004 195.215 28.4004 196.319 27.7004L195.315 29.4004C190.199 31.0004 186.988 33.0004 186.988 35.9004C186.988 39.5004 192.607 40.3004 195.315 35.6004L198.225 30.6004C202.138 29.4004 206.05 26.7004 210.264 21.8004C210.164 21.7004 210.164 21.6004 210.063 21.4004C211.769 19.4004 213.174 17.5004 216.083 13.6004L216.585 14.2004C217.086 14.8004 217.287 15.6004 216.785 16.4004L212.772 23.4004C211.167 26.2004 212.271 28.8004 215.381 28.8004C217.287 28.8004 219.394 27.6004 221.4 25.8004C221.4 27.5004 222.504 28.8004 224.711 28.8004C226.216 28.8004 228.122 27.8004 230.028 26.3004C230.229 27.8004 231.433 28.8004 233.339 28.8004C235.145 28.8004 237.152 27.7004 239.058 26.0004L237.653 28.4004H241.466L247.285 18.3004C253.104 11.0004 255.712 12.0004 254.006 14.8004L249.09 23.4004C247.485 26.2004 248.589 28.8004 251.699 28.8004C253.705 28.8004 255.913 27.4004 258.12 25.5004C257.919 27.4004 259.123 28.8004 261.431 28.8004C262.936 28.8004 264.842 27.8004 266.748 26.3004C266.949 27.8004 268.152 28.8004 270.059 28.8004C273.169 28.8004 276.781 25.4004 279.991 21.8004C279.59 21.6004 278.887 21.0004 278.386 20.8004ZM200.231 6.6004C201.335 4.7004 202.639 3.80038 203.643 3.80038C209.662 3.80038 205.448 16.1004 195.516 16.1004H194.714L200.231 6.6004ZM192.105 35.2004C191.302 36.6004 189.998 36.4004 189.998 35.4004C189.998 34.4004 190.901 33.3004 193.811 32.2004L192.105 35.2004ZM231.935 21.4004C229.627 25.0004 227.32 26.7004 225.815 26.7004C225.012 26.7004 224.51 26.1004 225.413 24.6004L230.731 15.4004C232.737 11.9004 236.851 12.8004 234.944 16.2004L231.935 21.4004ZM268.754 21.2004C266.447 25.0004 264.139 26.7004 262.534 26.7004C261.732 26.7004 261.23 26.1004 262.133 24.6004L267.45 15.4004C269.457 11.9004 273.57 12.8004 271.664 16.2004L268.754 21.2004Z" fill="white"/>
<path d="M151.272 56.8L150.971 57.1C148.262 60.3 145.554 62.8 143.848 62.8C143.045 62.8 142.544 62.2 143.447 60.7L148.965 51.1C150.57 48.2 149.065 46.1 146.958 46.1C145.353 46.1 143.547 47 141.641 48.9L143.045 46.4H139.233L133.113 57C132.912 56.9 132.812 56.8 132.611 56.7L132.31 57C130.605 58.9 128.498 59.8 126.592 59.8L130.204 53.6C132.511 49.6 130.404 45.9 126.792 45.9C123.883 45.9 121.576 47.1 119.368 50.9L117.462 54.1L115.857 56.9C115.757 56.8 115.656 56.8 115.556 56.7L115.255 57C112.145 60.6 109.436 62.9 106.426 64.2L116.86 46.4H113.048L106.326 58.1C103.416 60.8 101.109 62.3 100.407 62C99.5037 61.6 100.407 60.2 100.908 59.4L108.332 46.5H104.52L98.4001 57C98.2998 56.9 98.1994 56.9 98.0991 56.8L97.7981 57.1C95.0893 60.3 92.3805 62.8 90.675 62.8C89.8724 62.8 89.3707 62.2 90.2736 60.7L95.7916 51.1C97.3968 48.2 95.8919 46.1 93.7851 46.1C92.1799 46.1 90.374 47 88.4678 48.9L89.8723 46.4H86.0599L79.94 56.9C79.8397 56.8 79.7394 56.7 79.5387 56.7L79.2377 57C76.5289 60.2 73.8201 62.7 72.1146 62.7C71.312 62.7 70.8103 62.1 71.7133 60.6L77.8332 49.9H75.626C75.7263 48.3 74.1211 46.1 71.6129 46.1C69.6064 46.1 66.6969 47.7 65.0917 50.5L61.179 57.3C60.878 57.1 60.577 56.9 60.3764 56.8L60.0754 57.1C57.3666 60.3 53.9555 62.8 50.2434 62.8C47.6349 62.8 46.0297 60.2 48.3372 56.3L49.4408 54.4C50.1431 54.5 50.8454 54.6 51.648 54.6C55.661 54.6 60.276 52.5 63.2858 47.3C64.3894 45.4 64.7907 43.7 64.7907 42.2C64.7907 38.8 62.5836 36.5 59.7744 36.5C57.6676 36.5 55.1594 38 53.4538 40.9L47.5346 51.1C45.3274 49.9 44.1235 47.8 44.1235 45.7C44.1235 43.9 44.9261 42.2 46.5313 40.9L45.3274 38.7C42.6186 40.6 41.4147 43.2 41.4147 45.8C41.4147 48.8 43.1202 51.7 46.2303 53.3L45.1267 55.3C42.4179 59.9 44.0232 65 49.4408 65C53.6545 65 56.8649 63.1 59.4734 60.6C58.6708 63 59.8747 65 62.5836 65C64.0885 65 65.9947 64 67.9009 62.5C68.1015 64 69.3054 65 71.2116 65C73.0175 65 75.024 63.9 76.9302 62.2L75.5257 64.6H79.3381L85.157 54.5C90.9759 47.2 93.5844 48.2 91.8789 51L86.9629 59.6C85.3577 62.4 86.4612 65 89.5714 65C91.5779 65 93.8854 63.6 96.0926 61.6C95.591 63.7 96.5942 65 98.5004 65C100.306 65 102.413 63.5 104.119 61.9L102.012 65.5C96.8952 67 93.5844 69.1 93.5844 72C93.5844 75.6 99.2027 76.4 101.912 71.7L104.821 66.7C108.031 65.7 111.142 63.7 114.452 60.5C113.951 65.8 120.974 67 125.288 61.6H126.09C127.495 61.6 129.401 61.1 131.107 60.1L128.598 64.5H132.411L138.23 54.4C144.049 47.1 146.657 48.1 144.952 50.9L140.036 59.5C138.43 62.3 139.534 64.9 142.644 64.9C145.754 64.9 149.366 61.5 152.576 57.9C152.476 57.6 151.774 57 151.272 56.8ZM56.564 42.6C57.6676 40.7 58.9718 39.8 59.9751 39.8C61.3796 39.8 62.0819 40.7 62.0819 42.1C62.0819 45.6 57.7679 52 51.8486 52H51.046L56.564 42.6ZM70.0077 57.4C67.7002 61 65.3927 62.7 63.8878 62.7C63.0852 62.7 62.5836 62.1 63.4865 60.6L68.8038 51.4C70.8103 47.9 74.9237 48.8 73.0175 52.2L70.0077 57.4ZM98.9017 71.2C98.0991 72.6 96.7949 72.4 96.7949 71.4C96.7949 70.4 97.6978 69.3 100.607 68.2L98.9017 71.2ZM124.585 57H124.385C123.181 57 122.177 58 122.177 59.3C122.177 59.8 122.278 60.2 122.579 60.6V60.7C120.773 63.8 116.459 63.2 118.666 59.2L121.576 54.2L123.381 51.1C126.09 46.6 129.702 48.4 127.394 52.3L124.585 57Z" fill="white"/>
<path d="M239.459 58.1004C239.258 57.5004 238.556 56.9004 238.055 56.8004L237.754 57.1004C236.349 58.7004 234.643 60.2004 233.139 61.2004C234.342 57.6004 234.041 52.0004 236.449 47.2004L233.64 45.7004C232.035 47.9004 228.624 52.8004 225.213 56.8004L224.912 57.1004C222.203 60.3004 219.494 62.8004 217.789 62.8004C216.986 62.8004 216.183 62.0004 216.183 60.2004V58.6004C218.892 58.9004 221.701 57.2004 223.507 54.1004L224.51 52.3004C228.022 46.2004 222.303 44.2004 218.391 47.8004L223.808 38.4004H219.996L209.161 57.2004C208.96 57.0004 208.659 56.8004 208.458 56.7004L208.157 57.0004C205.448 60.2004 201.937 62.7004 199.228 62.7004C196.921 62.7004 195.516 61.2004 197.222 58.2004L201.134 51.4004C203.342 47.6004 207.254 48.3004 204.947 52.2004L204.445 53.1004H207.555L208.057 52.2004C210.063 48.7004 208.157 46.1004 205.047 46.1004C201.937 46.1004 199.529 47.7004 197.924 50.5004L194.212 56.9004C194.112 56.9004 194.011 56.8004 194.011 56.8004L193.71 57.1004C191.001 60.3004 188.293 62.8004 186.587 62.8004C185.784 62.8004 185.283 62.2004 186.186 60.7004L194.312 46.5004H190.5L183.778 58.3004C180.868 60.9004 178.661 62.4004 177.959 62.1004C177.056 61.7004 177.959 60.3004 178.461 59.5004L185.885 46.6004H182.072L174.648 59.3004C173.846 60.0004 172.943 60.7004 172.24 61.3004C173.444 57.7004 173.143 52.1004 175.551 47.3004L172.742 45.8004C171.137 48.0004 162.408 59.6004 158.897 63.6004C159.198 64.1004 159.8 64.5004 160.302 64.9004C162.509 62.4004 169.732 53.1004 171.036 51.3004C169.532 55.2004 170.334 62.3004 166.722 62.3004C165.418 62.3004 164.917 60.9004 164.917 60.9004L162.509 62.1004C162.509 62.1004 163.211 65.2004 166.722 65.2004C167.124 65.2004 167.425 65.2004 167.826 65.1004H167.926C169.833 64.8004 171.739 64.0004 173.545 62.7004C173.545 64.2004 174.448 65.2004 176.053 65.2004C178.16 65.2004 180.467 63.3004 182.273 61.6004C181.872 63.6004 183.076 65.2004 185.483 65.2004C187.891 65.2004 190.5 63.3004 193.008 60.8004C193.008 63.3004 195.014 65.2004 198.125 65.2004C201.235 65.2004 204.245 63.5004 206.953 61.2004L204.846 64.9004H208.659L212.973 57.4004V60.4004C212.973 63.6004 213.575 65.3004 216.685 65.3004C219.795 65.3004 223.407 61.9004 226.617 58.3004C228.824 55.8004 230.63 53.2004 232.035 51.4004C230.53 55.3004 231.333 62.4004 227.721 62.4004C226.417 62.4004 225.915 61.0004 225.915 61.0004L223.507 62.2004C223.507 62.2004 224.209 65.3004 227.721 65.3004C228.122 65.3004 228.423 65.3004 228.825 65.2004H228.925C232.737 64.5004 236.65 61.4004 239.459 58.1004ZM214.177 55.1004L215.28 53.2004C219.695 47.1004 222.705 48.8004 221.3 51.1004L219.494 54.2004C218.391 56.2004 215.08 57.6004 214.177 55.1004Z" fill="white"/>
<path d="M239.359 60.7002C238.155 60.7002 237.152 61.7002 237.152 62.9002C237.152 64.1002 238.055 65.1002 239.359 65.1002C240.563 65.1002 241.566 64.2002 241.566 62.9002C241.566 61.7002 240.563 60.7002 239.359 60.7002Z" fill="white"/>
<path d="M239.559 59.2H243.372L255.311 38.5H251.498L239.559 59.2Z" fill="white"/>
</svg>
